<?xml version="1.0" encoding="UTF-8" standalone="no"?><svg xmlns="http://www.w3.org/2000/svg" xmlns:xlink="http://www.w3.org/1999/xlink" clip-rule="evenodd" stroke-miterlimit="10" viewBox="0 0 1920 1080"><desc>SVG generated by Keynote</desc><defs></defs><g transform="matrix(1.00, 0.00, -0.00, -1.00, 0.0, 1080.0)"><g><clipPath id="clip0x6100008bc9e0"><path d="M 0.0 1080.0 L 1920.0 1080.0 L 1920.0 0.0 L 0.0 0.0 Z M 0.0 1080.0 "></path></clipPath><g clip-path="url(#clip0x6100008bc9e0)"><image xlink:href="../../5D8AB9B9-3D8E-4B06-B542-BC95DAAA4419/assets/18F8971E445B25125F850F9CF2CFFF78.jpeg" width="3840.00" height="2160.00" transform="matrix(0.50, 0.00, -0.00, -0.50, 0.0, 1080.0)"></image></g></g><g opacity="0.90"><image xlink:href="DAFAEAD67EF2D914397928A6A89D330E.png" width="185.00" height="102.00" transform="matrix(1.00, 0.00, -0.00, -1.00, 869.0, 951.0)"></image><g><clipPath id="clip0x6080006b1400"><path d="M 120.0 810.0 L 1800.0 810.0 L 1800.0 1020.0 L 120.0 1020.0 Z M 120.0 810.0 "></path></clipPath><g clip-path="url(#clip0x6080006b1400)"><text xml:space="preserve" font-family="Cochin,Cochin" font-size="104.0" fill="#515151" transform="matrix(1.00, 0.00, -0.00, -1.00, 866.6, 881.0)">T</text><text xml:space="preserve" font-family="Cochin,Cochin" font-size="104.0" fill="#515151" transform="matrix(1.00, 0.00, -0.00, -1.00, 930.2, 881.0)">i</text><text xml:space="preserve" font-family="Cochin,Cochin" font-size="104.0" fill="#515151" transform="matrix(1.00, 0.00, -0.00, -1.00, 957.1, 881.0)">p</text><text xml:space="preserve" font-family="Cochin,Cochin" font-size="104.0" fill="#515151" transform="matrix(1.00, 0.00, -0.00, -1.00, 1012.9, 881.0)">s</text></g></g></g><g opacity="0.90"><g><clipPath id="clip0x6080006b3620"><path d="M 120.0 140.0 L 1800.0 140.0 L 1800.0 770.0 L 120.0 770.0 Z M 120.0 140.0 "></path></clipPath><g clip-path="url(#clip0x6080006b3620)"><text xml:space="preserve" font-family="Cochin,Cochin" font-size="42.0" fill="#515050" transform="matrix(1.00, 0.00, -0.00, -1.00, 124.0, 720.0)">•</text><text xml:space="preserve" font-family="Cochin,Cochin" font-size="56.0" fill="#515151" transform="matrix(1.00, 0.00, -0.00, -1.00, 174.0, 716.0)">K</text><text xml:space="preserve" font-family="Cochin,Cochin" font-size="56.0" fill="#515151" transform="matrix(1.00, 0.00, -0.00, -1.00, 215.5, 716.0)">e</text><text xml:space="preserve" font-family="Cochin,Cochin" font-size="56.0" fill="#515151" transform="matrix(1.00, 0.00, -0.00, -1.00, 240.4, 716.0)">e</text><text xml:space="preserve" font-family="Cochin,Cochin" font-size="56.0" fill="#515151" transform="matrix(1.00, 0.00, -0.00, -1.00, 265.2, 716.0)">p</text><text xml:space="preserve" font-family="Cochin,Cochin" font-size="56.0" fill="#515151" transform="matrix(1.00, 0.00, -0.00, -1.00, 295.3, 716.0)"> </text><text xml:space="preserve" font-family="Cochin,Cochin" font-size="56.0" fill="#515151" transform="matrix(1.00, 0.00, -0.00, -1.00, 309.3, 716.0)">t</text><text xml:space="preserve" font-family="Cochin,Cochin" font-size="56.0" fill="#515151" transform="matrix(1.00, 0.00, -0.00, -1.00, 326.9, 716.0)">h</text><text xml:space="preserve" font-family="Cochin,Cochin" font-size="56.0" fill="#515151" transform="matrix(1.00, 0.00, -0.00, -1.00, 357.0, 716.0)">e</text><text xml:space="preserve" font-family="Cochin,Cochin" font-size="56.0" fill="#515151" transform="matrix(1.00, 0.00, -0.00, -1.00, 381.9, 716.0)"> </text><text xml:space="preserve" font-family="Cochin,Cochin" font-size="56.0" fill="#515151" transform="matrix(1.00, 0.00, -0.00, -1.00, 395.9, 716.0)">`</text><text xml:space="preserve" font-family="Cochin,Cochin" font-size="56.0" fill="#515151" transform="matrix(1.00, 0.00, -0.00, -1.00, 410.4, 716.0)">m</text><text xml:space="preserve" font-family="Cochin,Cochin" font-size="56.0" fill="#515151" transform="matrix(1.00, 0.00, -0.00, -1.00, 453.9, 716.0)">a</text><text xml:space="preserve" font-family="Cochin,Cochin" font-size="56.0" fill="#515151" transform="matrix(1.00, 0.00, -0.00, -1.00, 479.9, 716.0)">s</text><text xml:space="preserve" font-family="Cochin,Cochin" font-size="56.0" fill="#515151" transform="matrix(1.00, 0.00, -0.00, -1.00, 501.7, 716.0)">t</text><text xml:space="preserve" font-family="Cochin,Cochin" font-size="56.0" fill="#515151" transform="matrix(1.00, 0.00, -0.00, -1.00, 519.3, 716.0)">e</text><text xml:space="preserve" font-family="Cochin,Cochin" font-size="56.0" fill="#515151" transform="matrix(1.00, 0.00, -0.00, -1.00, 544.2, 716.0)">r</text><text xml:space="preserve" font-family="Cochin,Cochin" font-size="56.0" fill="#515151" transform="matrix(1.00, 0.00, -0.00, -1.00, 565.9, 716.0)">`</text><text xml:space="preserve" font-family="Cochin,Cochin" font-size="56.0" fill="#515151" transform="matrix(1.00, 0.00, -0.00, -1.00, 580.4, 716.0)"> </text><text xml:space="preserve" font-family="Cochin,Cochin" font-size="56.0" fill="#515151" transform="matrix(1.00, 0.00, -0.00, -1.00, 594.4, 716.0)">b</text><text xml:space="preserve" font-family="Cochin,Cochin" font-size="56.0" fill="#515151" transform="matrix(1.00, 0.00, -0.00, -1.00, 624.5, 716.0)">r</text><text xml:space="preserve" font-family="Cochin,Cochin" font-size="56.0" fill="#515151" transform="matrix(1.00, 0.00, -0.00, -1.00, 646.3, 716.0)">a</text><text xml:space="preserve" font-family="Cochin,Cochin" font-size="56.0" fill="#515151" transform="matrix(1.00, 0.00, -0.00, -1.00, 672.2, 716.0)">n</text><text xml:space="preserve" font-family="Cochin,Cochin" font-size="56.0" fill="#515151" transform="matrix(1.00, 0.00, -0.00, -1.00, 702.3, 716.0)">c</text><text xml:space="preserve" font-family="Cochin,Cochin" font-size="56.0" fill="#515151" transform="matrix(1.00, 0.00, -0.00, -1.00, 727.2, 716.0)">h</text><text xml:space="preserve" font-family="Cochin,Cochin" font-size="56.0" fill="#515151" transform="matrix(1.00, 0.00, -0.00, -1.00, 757.2, 716.0)"> </text><text xml:space="preserve" font-family="Cochin,Cochin" font-size="56.0" fill="#515151" transform="matrix(1.00, 0.00, -0.00, -1.00, 771.2, 716.0)">c</text><text xml:space="preserve" font-family="Cochin,Cochin" font-size="56.0" fill="#515151" transform="matrix(1.00, 0.00, -0.00, -1.00, 796.1, 716.0)">l</text><text xml:space="preserve" font-family="Cochin,Cochin" font-size="56.0" fill="#515151" transform="matrix(1.00, 0.00, -0.00, -1.00, 810.6, 716.0)">e</text><text xml:space="preserve" font-family="Cochin,Cochin" font-size="56.0" fill="#515151" transform="matrix(1.00, 0.00, -0.00, -1.00, 835.5, 716.0)">a</text><text xml:space="preserve" font-family="Cochin,Cochin" font-size="56.0" fill="#515151" transform="matrix(1.00, 0.00, -0.00, -1.00, 861.4, 716.0)">n</text><text xml:space="preserve" font-family="Cochin,Cochin" font-size="56.0" fill="#515151" transform="matrix(1.00, 0.00, -0.00, -1.00, 891.5, 716.0)"> </text><text xml:space="preserve" font-family="Cochin,Cochin" font-size="56.0" fill="#515151" transform="matrix(1.00, 0.00, -0.00, -1.00, 905.5, 716.0)">a</text><text xml:space="preserve" font-family="Cochin,Cochin" font-size="56.0" fill="#515151" transform="matrix(1.00, 0.00, -0.00, -1.00, 931.4, 716.0)">n</text><text xml:space="preserve" font-family="Cochin,Cochin" font-size="56.0" fill="#515151" transform="matrix(1.00, 0.00, -0.00, -1.00, 961.5, 716.0)">d</text><text xml:space="preserve" font-family="Cochin,Cochin" font-size="56.0" fill="#515151" transform="matrix(1.00, 0.00, -0.00, -1.00, 991.5, 716.0)"> </text><text xml:space="preserve" font-family="Cochin,Cochin" font-size="56.0" fill="#515151" transform="matrix(1.00, 0.00, -0.00, -1.00, 1005.5, 716.0)">s</text><text xml:space="preserve" font-family="Cochin,Cochin" font-size="56.0" fill="#515151" transform="matrix(1.00, 0.00, -0.00, -1.00, 1027.3, 716.0)">y</text><text xml:space="preserve" font-family="Cochin,Cochin" font-size="56.0" fill="#515151" transform="matrix(1.00, 0.00, -0.00, -1.00, 1055.3, 716.0)">n</text><text xml:space="preserve" font-family="Cochin,Cochin" font-size="56.0" fill="#515151" transform="matrix(1.00, 0.00, -0.00, -1.00, 1085.4, 716.0)">c</text><text xml:space="preserve" font-family="Cochin,Cochin" font-size="56.0" fill="#515151" transform="matrix(1.00, 0.00, -0.00, -1.00, 1110.3, 716.0)"> </text><text xml:space="preserve" font-family="Cochin,Cochin" font-size="56.0" fill="#515151" transform="matrix(1.00, 0.00, -0.00, -1.00, 1124.3, 716.0)">w</text><text xml:space="preserve" font-family="Cochin,Cochin" font-size="56.0" fill="#515151" transform="matrix(1.00, 0.00, -0.00, -1.00, 1165.8, 716.0)">i</text><text xml:space="preserve" font-family="Cochin,Cochin" font-size="56.0" fill="#515151" transform="matrix(1.00, 0.00, -0.00, -1.00, 1180.3, 716.0)">t</text><text xml:space="preserve" font-family="Cochin,Cochin" font-size="56.0" fill="#515151" transform="matrix(1.00, 0.00, -0.00, -1.00, 1197.9, 716.0)">h</text><text xml:space="preserve" font-family="Cochin,Cochin" font-size="56.0" fill="#515151" transform="matrix(1.00, 0.00, -0.00, -1.00, 1228.0, 716.0)"> </text><text xml:space="preserve" font-family="Cochin,Cochin" font-size="56.0" fill="#515151" transform="matrix(1.00, 0.00, -0.00, -1.00, 1242.0, 716.0)">S</text><text xml:space="preserve" font-family="Cochin,Cochin" font-size="56.0" fill="#515151" transform="matrix(1.00, 0.00, -0.00, -1.00, 1275.2, 716.0)">V</text><text xml:space="preserve" font-family="Cochin,Cochin" font-size="56.0" fill="#515151" transform="matrix(1.00, 0.00, -0.00, -1.00, 1314.6, 716.0)">N</text><text xml:space="preserve" font-family="Cochin,Cochin" font-size="42.0" fill="#515050" transform="matrix(1.00, 0.00, -0.00, -1.00, 124.0, 600.0)">•</text><text xml:space="preserve" font-family="Cochin,Cochin" font-size="56.0" fill="#515151" transform="matrix(1.00, 0.00, -0.00, -1.00, 174.0, 596.0)">U</text><text xml:space="preserve" font-family="Cochin,Cochin" font-size="56.0" fill="#515151" transform="matrix(1.00, 0.00, -0.00, -1.00, 218.6, 596.0)">s</text><text xml:space="preserve" font-family="Cochin,Cochin" font-size="56.0" fill="#515151" transform="matrix(1.00, 0.00, -0.00, -1.00, 240.4, 596.0)">e</text><text xml:space="preserve" font-family="Cochin,Cochin" font-size="56.0" fill="#515151" transform="matrix(1.00, 0.00, -0.00, -1.00, 265.2, 596.0)"> </text><text xml:space="preserve" font-family="Cochin,Cochin" font-size="56.0" fill="#515151" transform="matrix(1.00, 0.00, -0.00, -1.00, 279.2, 596.0)">b</text><text xml:space="preserve" font-family="Cochin,Cochin" font-size="56.0" fill="#515151" transform="matrix(1.00, 0.00, -0.00, -1.00, 309.3, 596.0)">r</text><text xml:space="preserve" font-family="Cochin,Cochin" font-size="56.0" fill="#515151" transform="matrix(1.00, 0.00, -0.00, -1.00, 331.1, 596.0)">a</text><text xml:space="preserve" font-family="Cochin,Cochin" font-size="56.0" fill="#515151" transform="matrix(1.00, 0.00, -0.00, -1.00, 357.0, 596.0)">n</text><text xml:space="preserve" font-family="Cochin,Cochin" font-size="56.0" fill="#515151" transform="matrix(1.00, 0.00, -0.00, -1.00, 387.1, 596.0)">c</text><text xml:space="preserve" font-family="Cochin,Cochin" font-size="56.0" fill="#515151" transform="matrix(1.00, 0.00, -0.00, -1.00, 411.9, 596.0)">h</text><text xml:space="preserve" font-family="Cochin,Cochin" font-size="56.0" fill="#515151" transform="matrix(1.00, 0.00, -0.00, -1.00, 442.0, 596.0)">e</text><text xml:space="preserve" font-family="Cochin,Cochin" font-size="56.0" fill="#515151" transform="matrix(1.00, 0.00, -0.00, -1.00, 466.9, 596.0)">s</text><text xml:space="preserve" font-family="Cochin,Cochin" font-size="56.0" fill="#515151" transform="matrix(1.00, 0.00, -0.00, -1.00, 488.7, 596.0)"> </text><text xml:space="preserve" font-family="Cochin,Cochin" font-size="56.0" fill="#515151" transform="matrix(1.00, 0.00, -0.00, -1.00, 502.7, 596.0)">f</text><text xml:space="preserve" font-family="Cochin,Cochin" font-size="56.0" fill="#515151" transform="matrix(1.00, 0.00, -0.00, -1.00, 520.3, 596.0)">o</text><text xml:space="preserve" font-family="Cochin,Cochin" font-size="56.0" fill="#515151" transform="matrix(1.00, 0.00, -0.00, -1.00, 548.3, 596.0)">r</text><text xml:space="preserve" font-family="Cochin,Cochin" font-size="56.0" fill="#515151" transform="matrix(1.00, 0.00, -0.00, -1.00, 570.1, 596.0)"> </text><text xml:space="preserve" font-family="Cochin,Cochin" font-size="56.0" fill="#515151" transform="matrix(1.00, 0.00, -0.00, -1.00, 584.1, 596.0)">e</text><text xml:space="preserve" font-family="Cochin,Cochin" font-size="56.0" fill="#515151" transform="matrix(1.00, 0.00, -0.00, -1.00, 609.0, 596.0)">v</text><text xml:space="preserve" font-family="Cochin,Cochin" font-size="56.0" fill="#515151" transform="matrix(1.00, 0.00, -0.00, -1.00, 637.0, 596.0)">e</text><text xml:space="preserve" font-family="Cochin,Cochin" font-size="56.0" fill="#515151" transform="matrix(1.00, 0.00, -0.00, -1.00, 661.8, 596.0)">r</text><text xml:space="preserve" font-family="Cochin,Cochin" font-size="56.0" fill="#515151" transform="matrix(1.00, 0.00, -0.00, -1.00, 683.6, 596.0)">y</text><text xml:space="preserve" font-family="Cochin,Cochin" font-size="56.0" fill="#515151" transform="matrix(1.00, 0.00, -0.00, -1.00, 711.6, 596.0)"> </text><text xml:space="preserve" font-family="Cochin,Cochin" font-size="56.0" fill="#515151" transform="matrix(1.00, 0.00, -0.00, -1.00, 725.6, 596.0)">t</text><text xml:space="preserve" font-family="Cochin,Cochin" font-size="56.0" fill="#515151" transform="matrix(1.00, 0.00, -0.00, -1.00, 743.2, 596.0)">a</text><text xml:space="preserve" font-family="Cochin,Cochin" font-size="56.0" fill="#515151" transform="matrix(1.00, 0.00, -0.00, -1.00, 769.2, 596.0)">s</text><text xml:space="preserve" font-family="Cochin,Cochin" font-size="56.0" fill="#515151" transform="matrix(1.00, 0.00, -0.00, -1.00, 791.0, 596.0)">k</text><text xml:space="preserve" font-family="Cochin,Cochin" font-size="56.0" fill="#515151" transform="matrix(1.00, 0.00, -0.00, -1.00, 821.0, 596.0)">s</text><text xml:space="preserve" font-family="Cochin,Cochin" font-size="42.0" fill="#515050" transform="matrix(1.00, 0.00, -0.00, -1.00, 124.0, 480.0)">•</text><text xml:space="preserve" font-family="Cochin,Cochin" font-size="56.0" fill="#515151" transform="matrix(1.00, 0.00, -0.00, -1.00, 174.0, 476.0)">U</text><text xml:space="preserve" font-family="Cochin,Cochin" font-size="56.0" fill="#515151" transform="matrix(1.00, 0.00, -0.00, -1.00, 218.6, 476.0)">s</text><text xml:space="preserve" font-family="Cochin,Cochin" font-size="56.0" fill="#515151" transform="matrix(1.00, 0.00, -0.00, -1.00, 240.4, 476.0)">e</text><text xml:space="preserve" font-family="Cochin,Cochin" font-size="56.0" fill="#515151" transform="matrix(1.00, 0.00, -0.00, -1.00, 265.2, 476.0)"> </text><text xml:space="preserve" font-family="Cochin,Cochin" font-size="56.0" fill="#515151" transform="matrix(1.00, 0.00, -0.00, -1.00, 279.2, 476.0)">t</text><text xml:space="preserve" font-family="Cochin,Cochin" font-size="56.0" fill="#515151" transform="matrix(1.00, 0.00, -0.00, -1.00, 296.9, 476.0)">a</text><text xml:space="preserve" font-family="Cochin,Cochin" font-size="56.0" fill="#515151" transform="matrix(1.00, 0.00, -0.00, -1.00, 322.8, 476.0)">g</text><text xml:space="preserve" font-family="Cochin,Cochin" font-size="56.0" fill="#515151" transform="matrix(1.00, 0.00, -0.00, -1.00, 350.8, 476.0)">s</text><text xml:space="preserve" font-family="Cochin,Cochin" font-size="56.0" fill="#515151" transform="matrix(1.00, 0.00, -0.00, -1.00, 372.6, 476.0)"> </text><text xml:space="preserve" font-family="Cochin,Cochin" font-size="56.0" fill="#515151" transform="matrix(1.00, 0.00, -0.00, -1.00, 386.6, 476.0)">f</text><text xml:space="preserve" font-family="Cochin,Cochin" font-size="56.0" fill="#515151" transform="matrix(1.00, 0.00, -0.00, -1.00, 404.2, 476.0)">o</text><text xml:space="preserve" font-family="Cochin,Cochin" font-size="56.0" fill="#515151" transform="matrix(1.00, 0.00, -0.00, -1.00, 432.2, 476.0)">r</text><text xml:space="preserve" font-family="Cochin,Cochin" font-size="56.0" fill="#515151" transform="matrix(1.00, 0.00, -0.00, -1.00, 454.0, 476.0)"> </text><text xml:space="preserve" font-family="Cochin,Cochin" font-size="56.0" fill="#515151" transform="matrix(1.00, 0.00, -0.00, -1.00, 468.0, 476.0)">m</text><text xml:space="preserve" font-family="Cochin,Cochin" font-size="56.0" fill="#515151" transform="matrix(1.00, 0.00, -0.00, -1.00, 511.6, 476.0)">i</text><text xml:space="preserve" font-family="Cochin,Cochin" font-size="56.0" fill="#515151" transform="matrix(1.00, 0.00, -0.00, -1.00, 526.1, 476.0)">l</text><text xml:space="preserve" font-family="Cochin,Cochin" font-size="56.0" fill="#515151" transform="matrix(1.00, 0.00, -0.00, -1.00, 540.6, 476.0)">e</text><text xml:space="preserve" font-family="Cochin,Cochin" font-size="56.0" fill="#515151" transform="matrix(1.00, 0.00, -0.00, -1.00, 565.4, 476.0)">s</text><text xml:space="preserve" font-family="Cochin,Cochin" font-size="56.0" fill="#515151" transform="matrix(1.00, 0.00, -0.00, -1.00, 587.2, 476.0)">t</text><text xml:space="preserve" font-family="Cochin,Cochin" font-size="56.0" fill="#515151" transform="matrix(1.00, 0.00, -0.00, -1.00, 604.9, 476.0)">o</text><text xml:space="preserve" font-family="Cochin,Cochin" font-size="56.0" fill="#515151" transform="matrix(1.00, 0.00, -0.00, -1.00, 632.9, 476.0)">n</text><text xml:space="preserve" font-family="Cochin,Cochin" font-size="56.0" fill="#515151" transform="matrix(1.00, 0.00, -0.00, -1.00, 662.9, 476.0)">e</text><text xml:space="preserve" font-family="Cochin,Cochin" font-size="56.0" fill="#515151" transform="matrix(1.00, 0.00, -0.00, -1.00, 687.8, 476.0)">s</text></g></g></g><g opacity="0.90"><g><clipPath id="clip0x6080006b6020"><path d="M 940.0 14.0 L 978.0 14.0 L 978.0 55.0 L 940.0 55.0 Z M 940.0 14.0 "></path></clipPath><g clip-path="url(#clip0x6080006b6020)"><text xml:space="preserve" font-family="Cochin,Cochin" font-size="28.0" fill="#515050" transform="matrix(1.00, 0.00, -0.00, -1.00, 945.0, 26.0)">1</text><text xml:space="preserve" font-family="Cochin,Cochin" font-size="28.0" fill="#515050" transform="matrix(1.00, 0.00, -0.00, -1.00, 959.0, 26.0)">5</text></g></g></g></g></svg>