<?xml version="1.0" encoding="UTF-8" standalone="no"?><svg xmlns="http://www.w3.org/2000/svg" xmlns:xlink="http://www.w3.org/1999/xlink" clip-rule="evenodd" stroke-miterlimit="10" viewBox="0 0 1920 1080"><desc>SVG generated by Keynote</desc><defs></defs><g transform="matrix(1.00, 0.00, -0.00, -1.00, 0.0, 1080.0)"><g><clipPath id="clip0x6100008bc440"><path d="M 0.0 1080.0 L 1920.0 1080.0 L 1920.0 0.0 L 0.0 0.0 Z M 0.0 1080.0 "></path></clipPath><g clip-path="url(#clip0x6100008bc440)"><image xlink:href="../../5D8AB9B9-3D8E-4B06-B542-BC95DAAA4419/assets/89DBA3FD5EEAF014B930A1B46B156DC4.jpeg" width="3840.00" height="2160.00" transform="matrix(0.50, 0.00, -0.00, -0.50, 0.0, 1080.0)"></image></g></g><g opacity="0.90"><image xlink:href="../../B7B14997-F8C5-415C-B73A-5D9E7887C927/assets/6F53FE96BE390856C09D83EBDDBF04E4.png" width="435.00" height="101.00" transform="matrix(1.00, 0.00, -0.00, -1.00, 745.0, 587.0)"></image><g><clipPath id="clip0x6080004bdb20"><path d="M 120.0 366.0 L 1800.0 366.0 L 1800.0 716.0 L 120.0 716.0 Z M 120.0 366.0 "></path></clipPath><g clip-path="url(#clip0x6080004bdb20)"><text xml:space="preserve" font-family="Cochin,Cochin" font-size="140.0" fill="#515050" transform="matrix(1.00, 0.00, -0.00, -1.00, 740.3, 495.0)">H</text><text xml:space="preserve" font-family="Cochin,Cochin" font-size="140.0" fill="#515050" transform="matrix(1.00, 0.00, -0.00, -1.00, 856.9, 495.0)">o</text><text xml:space="preserve" font-family="Cochin,Cochin" font-size="140.0" fill="#515050" transform="matrix(1.00, 0.00, -0.00, -1.00, 926.9, 495.0)">w</text><text xml:space="preserve" font-family="Cochin,Cochin" font-size="140.0" fill="#515050" transform="matrix(1.00, 0.00, -0.00, -1.00, 1030.6, 495.0)"> </text><text xml:space="preserve" font-family="Cochin,Cochin" font-size="140.0" fill="#515050" transform="matrix(1.00, 0.00, -0.00, -1.00, 1065.6, 495.0)">t</text><text xml:space="preserve" font-family="Cochin,Cochin" font-size="140.0" fill="#515050" transform="matrix(1.00, 0.00, -0.00, -1.00, 1109.7, 495.0)">o</text></g></g></g><g opacity="0.90"><g><clipPath id="clip0x6080006a3600"><path d="M 947.0 14.0 L 971.0 14.0 L 971.0 55.0 L 947.0 55.0 Z M 947.0 14.0 "></path></clipPath><g clip-path="url(#clip0x6080006a3600)"><text xml:space="preserve" font-family="Cochin,Cochin" font-size="28.0" fill="#515050" transform="matrix(1.00, 0.00, -0.00, -1.00, 952.0, 26.0)">9</text></g></g></g></g></svg>