<?xml version="1.0" encoding="UTF-8" standalone="no"?><svg xmlns="http://www.w3.org/2000/svg" xmlns:xlink="http://www.w3.org/1999/xlink" clip-rule="evenodd" stroke-miterlimit="10" viewBox="0 0 1920 1080"><desc>SVG generated by Keynote</desc><defs></defs><g transform="matrix(1.00, 0.00, -0.00, -1.00, 0.0, 1080.0)"><g><clipPath id="clip0x6080004b0740"><path d="M 0.0 1080.0 L 1920.0 1080.0 L 1920.0 0.0 L 0.0 0.0 Z M 0.0 1080.0 "></path></clipPath><g clip-path="url(#clip0x6080004b0740)"><image xlink:href="89DBA3FD5EEAF014B930A1B46B156DC4.jpeg" width="3840.00" height="2160.00" transform="matrix(0.50, 0.00, -0.00, -0.50, 0.0, 1080.0)"></image></g></g><g opacity="0.90"><image xlink:href="1B4D861F315827CB082DDEC9F9FC98CD.png" width="809.00" height="104.00" transform="matrix(1.00, 0.00, -0.00, -1.00, 561.0, 634.0)"></image><g><clipPath id="clip0x6000008bc8c0"><path d="M 120.0 500.0 L 1800.0 500.0 L 1800.0 852.0 L 120.0 852.0 Z M 120.0 500.0 "></path></clipPath><g clip-path="url(#clip0x6000008bc8c0)"><text xml:space="preserve" font-family="Cochin,Cochin" font-size="140.0" fill="#515050" transform="matrix(1.00, 0.00, -0.00, -1.00, 554.2, 539.0)">G</text><text xml:space="preserve" font-family="Cochin,Cochin" font-size="140.0" fill="#515050" transform="matrix(1.00, 0.00, -0.00, -1.00, 663.1, 539.0)">i</text><text xml:space="preserve" font-family="Cochin,Cochin" font-size="140.0" fill="#515050" transform="matrix(1.00, 0.00, -0.00, -1.00, 699.4, 539.0)">t</text><text xml:space="preserve" font-family="Cochin,Cochin" font-size="140.0" fill="#515050" transform="matrix(1.00, 0.00, -0.00, -1.00, 743.5, 539.0)"> </text><text xml:space="preserve" font-family="Cochin,Cochin" font-size="140.0" fill="#515050" transform="matrix(1.00, 0.00, -0.00, -1.00, 778.5, 539.0)">o</text><text xml:space="preserve" font-family="Cochin,Cochin" font-size="140.0" fill="#515050" transform="matrix(1.00, 0.00, -0.00, -1.00, 848.5, 539.0)">v</text><text xml:space="preserve" font-family="Cochin,Cochin" font-size="140.0" fill="#515050" transform="matrix(1.00, 0.00, -0.00, -1.00, 918.5, 539.0)">e</text><text xml:space="preserve" font-family="Cochin,Cochin" font-size="140.0" fill="#515050" transform="matrix(1.00, 0.00, -0.00, -1.00, 980.7, 539.0)">r</text><text xml:space="preserve" font-family="Cochin,Cochin" font-size="140.0" fill="#515050" transform="matrix(1.00, 0.00, -0.00, -1.00, 1035.1, 539.0)"> </text><text xml:space="preserve" font-family="Cochin,Cochin" font-size="140.0" fill="#515050" transform="matrix(1.00, 0.00, -0.00, -1.00, 1070.1, 539.0)">S</text><text xml:space="preserve" font-family="Cochin,Cochin" font-size="140.0" fill="#515050" transform="matrix(1.00, 0.00, -0.00, -1.00, 1153.1, 539.0)">V</text><text xml:space="preserve" font-family="Cochin,Cochin" font-size="140.0" fill="#515050" transform="matrix(1.00, 0.00, -0.00, -1.00, 1251.7, 539.0)">N</text></g></g></g><g opacity="0.90"><image xlink:href="9AA635680C50446E0CC9C32DF1C068E6.png" width="817.00" height="62.00" transform="matrix(1.00, 0.00, -0.00, -1.00, 555.0, 474.0)"></image><g><clipPath id="clip0x6100008b7460"><path d="M 120.0 320.0 L 1800.0 320.0 L 1800.0 489.0 L 120.0 489.0 Z M 120.0 320.0 "></path></clipPath><g clip-path="url(#clip0x6100008b7460)"><text xml:space="preserve" font-family="Cochin,Cochin" font-size="58.0" fill="#515151" transform="matrix(1.00, 0.00, -0.00, -1.00, 553.4, 432.5)">H</text><text xml:space="preserve" font-family="Cochin,Cochin" font-size="58.0" fill="#515151" transform="matrix(1.00, 0.00, -0.00, -1.00, 601.8, 432.5)">o</text><text xml:space="preserve" font-family="Cochin,Cochin" font-size="58.0" fill="#515151" transform="matrix(1.00, 0.00, -0.00, -1.00, 630.8, 432.5)">w</text><text xml:space="preserve" font-family="Cochin,Cochin" font-size="58.0" fill="#515151" transform="matrix(1.00, 0.00, -0.00, -1.00, 673.7, 432.5)"> </text><text xml:space="preserve" font-family="Cochin,Cochin" font-size="58.0" fill="#515151" transform="matrix(1.00, 0.00, -0.00, -1.00, 688.2, 432.5)">G</text><text xml:space="preserve" font-family="Cochin,Cochin" font-size="58.0" fill="#515151" transform="matrix(1.00, 0.00, -0.00, -1.00, 733.4, 432.5)">i</text><text xml:space="preserve" font-family="Cochin,Cochin" font-size="58.0" fill="#515151" transform="matrix(1.00, 0.00, -0.00, -1.00, 748.4, 432.5)">t</text><text xml:space="preserve" font-family="Cochin,Cochin" font-size="58.0" fill="#515151" transform="matrix(1.00, 0.00, -0.00, -1.00, 766.7, 432.5)"> </text><text xml:space="preserve" font-family="Cochin,Cochin" font-size="58.0" fill="#515151" transform="matrix(1.00, 0.00, -0.00, -1.00, 781.2, 432.5)">s</text><text xml:space="preserve" font-family="Cochin,Cochin" font-size="58.0" fill="#515151" transform="matrix(1.00, 0.00, -0.00, -1.00, 803.7, 432.5)">a</text><text xml:space="preserve" font-family="Cochin,Cochin" font-size="58.0" fill="#515151" transform="matrix(1.00, 0.00, -0.00, -1.00, 830.6, 432.5)">v</text><text xml:space="preserve" font-family="Cochin,Cochin" font-size="58.0" fill="#515151" transform="matrix(1.00, 0.00, -0.00, -1.00, 859.6, 432.5)">e</text><text xml:space="preserve" font-family="Cochin,Cochin" font-size="58.0" fill="#515151" transform="matrix(1.00, 0.00, -0.00, -1.00, 885.3, 432.5)"> </text><text xml:space="preserve" font-family="Cochin,Cochin" font-size="58.0" fill="#515151" transform="matrix(1.00, 0.00, -0.00, -1.00, 899.8, 432.5)">y</text><text xml:space="preserve" font-family="Cochin,Cochin" font-size="58.0" fill="#515151" transform="matrix(1.00, 0.00, -0.00, -1.00, 928.8, 432.5)">o</text><text xml:space="preserve" font-family="Cochin,Cochin" font-size="58.0" fill="#515151" transform="matrix(1.00, 0.00, -0.00, -1.00, 957.8, 432.5)">u</text><text xml:space="preserve" font-family="Cochin,Cochin" font-size="58.0" fill="#515151" transform="matrix(1.00, 0.00, -0.00, -1.00, 989.0, 432.5)">r</text><text xml:space="preserve" font-family="Cochin,Cochin" font-size="58.0" fill="#515151" transform="matrix(1.00, 0.00, -0.00, -1.00, 1011.5, 432.5)"> </text><text xml:space="preserve" font-family="Cochin,Cochin" font-size="58.0" fill="#515151" transform="matrix(1.00, 0.00, -0.00, -1.00, 1026.0, 432.5)">l</text><text xml:space="preserve" font-family="Cochin,Cochin" font-size="58.0" fill="#515151" transform="matrix(1.00, 0.00, -0.00, -1.00, 1041.1, 432.5)">i</text><text xml:space="preserve" font-family="Cochin,Cochin" font-size="58.0" fill="#515151" transform="matrix(1.00, 0.00, -0.00, -1.00, 1056.1, 432.5)">f</text><text xml:space="preserve" font-family="Cochin,Cochin" font-size="58.0" fill="#515151" transform="matrix(1.00, 0.00, -0.00, -1.00, 1074.3, 432.5)">e</text><text xml:space="preserve" font-family="Cochin,Cochin" font-size="58.0" fill="#515151" transform="matrix(1.00, 0.00, -0.00, -1.00, 1100.1, 432.5)"> </text><text xml:space="preserve" font-family="Cochin,Cochin" font-size="58.0" fill="#515151" transform="matrix(1.00, 0.00, -0.00, -1.00, 1114.6, 432.5)">f</text><text xml:space="preserve" font-family="Cochin,Cochin" font-size="58.0" fill="#515151" transform="matrix(1.00, 0.00, -0.00, -1.00, 1132.9, 432.5)">r</text><text xml:space="preserve" font-family="Cochin,Cochin" font-size="58.0" fill="#515151" transform="matrix(1.00, 0.00, -0.00, -1.00, 1155.4, 432.5)">o</text><text xml:space="preserve" font-family="Cochin,Cochin" font-size="58.0" fill="#515151" transform="matrix(1.00, 0.00, -0.00, -1.00, 1184.4, 432.5)">m</text><text xml:space="preserve" font-family="Cochin,Cochin" font-size="58.0" fill="#515151" transform="matrix(1.00, 0.00, -0.00, -1.00, 1229.6, 432.5)"> </text><text xml:space="preserve" font-family="Cochin,Cochin" font-size="58.0" fill="#515151" transform="matrix(1.00, 0.00, -0.00, -1.00, 1244.1, 432.5)">S</text><text xml:space="preserve" font-family="Cochin,Cochin" font-size="58.0" fill="#515151" transform="matrix(1.00, 0.00, -0.00, -1.00, 1278.4, 432.5)">V</text><text xml:space="preserve" font-family="Cochin,Cochin" font-size="58.0" fill="#515151" transform="matrix(1.00, 0.00, -0.00, -1.00, 1319.3, 432.5)">N</text></g></g></g><g opacity="0.90"><g><clipPath id="clip0x6100008a7fe0"><path d="M 947.0 14.0 L 971.0 14.0 L 971.0 55.0 L 947.0 55.0 Z M 947.0 14.0 "></path></clipPath><g clip-path="url(#clip0x6100008a7fe0)"><text xml:space="preserve" font-family="Cochin,Cochin" font-size="28.0" fill="#515050" transform="matrix(1.00, 0.00, -0.00, -1.00, 952.0, 26.0)">1</text></g></g></g><g opacity="0.90"><image xlink:href="DCA132BDF299F1DD0BC9BC4D81C1A73D.png" width="198.00" height="53.00" transform="matrix(1.00, 0.00, -0.00, -1.00, 1448.0, 291.0)"></image><g><clipPath id="clip0x6000008bc4a0"><path d="M 1443.0 236.0 L 1648.0 236.0 L 1648.0 304.0 L 1443.0 304.0 Z M 1443.0 236.0 "></path></clipPath><g clip-path="url(#clip0x6000008bc4a0)"><text xml:space="preserve" font-family="Cochin,Cochin" font-size="48.0" fill="#515151" transform="matrix(1.00, 0.00, -0.00, -1.00, 1448.5, 256.0)">b</text><text xml:space="preserve" font-family="Cochin,Cochin" font-size="48.0" fill="#515151" transform="matrix(1.00, 0.00, -0.00, -1.00, 1474.3, 256.0)">y</text><text xml:space="preserve" font-family="Cochin,Cochin" font-size="48.0" fill="#515151" transform="matrix(1.00, 0.00, -0.00, -1.00, 1498.3, 256.0)"> </text><text xml:space="preserve" font-family="Cochin,Cochin" font-size="48.0" fill="#515151" transform="matrix(1.00, 0.00, -0.00, -1.00, 1510.3, 256.0)">.</text><text xml:space="preserve" font-family="Cochin,Cochin" font-size="48.0" fill="#515151" transform="matrix(1.00, 0.00, -0.00, -1.00, 1522.3, 256.0)">{</text><text xml:space="preserve" font-family="Cochin,Cochin" font-size="48.0" fill="#515151" transform="matrix(1.00, 0.00, -0.00, -1.00, 1540.9, 256.0)">^</text><text xml:space="preserve" font-family="Cochin,Cochin" font-size="48.0" fill="#515151" transform="matrix(1.00, 0.00, -0.00, -1.00, 1564.9, 256.0)">~</text><text xml:space="preserve" font-family="Cochin,Cochin" font-size="48.0" fill="#515151" transform="matrix(1.00, 0.00, -0.00, -1.00, 1588.9, 256.0)">^</text><text xml:space="preserve" font-family="Cochin,Cochin" font-size="48.0" fill="#515151" transform="matrix(1.00, 0.00, -0.00, -1.00, 1612.9, 256.0)">}</text><text xml:space="preserve" font-family="Cochin,Cochin" font-size="48.0" fill="#515151" transform="matrix(1.00, 0.00, -0.00, -1.00, 1631.5, 256.0)">.</text></g></g></g><image xlink:href="EC0EFA0758D80BE132686E3CFE7FD6EA.png" width="450.00" height="450.00" transform="matrix(0.72, 0.00, -0.00, -0.72, 137.0, 714.0)"></image><image xlink:href="A94851CD3D07E948469CB14E96B4B635.png" width="359.00" height="369.00" transform="matrix(1.00, 0.00, -0.00, 1.00, 120.0, 356.0)"></image></g></svg>