<?xml version="1.0" encoding="UTF-8" standalone="no"?><svg xmlns="http://www.w3.org/2000/svg" xmlns:xlink="http://www.w3.org/1999/xlink" clip-rule="evenodd" stroke-miterlimit="10" viewBox="0 0 1920 1080"><desc>SVG generated by Keynote</desc><defs></defs><g transform="matrix(1.00, 0.00, -0.00, -1.00, 0.0, 1080.0)"><g><clipPath id="clip0x6180006a7920"><path d="M 0.0 1080.0 L 1920.0 1080.0 L 1920.0 0.0 L 0.0 0.0 Z M 0.0 1080.0 "></path></clipPath><g clip-path="url(#clip0x6180006a7920)"><image xlink:href="../../5D8AB9B9-3D8E-4B06-B542-BC95DAAA4419/assets/18F8971E445B25125F850F9CF2CFFF78.jpeg" width="3840.00" height="2160.00" transform="matrix(0.50, 0.00, -0.00, -0.50, 0.0, 1080.0)"></image></g></g><g opacity="0.90"><g><clipPath id="clip0x6080004bcce0"><path d="M 188.0 318.0 L 1733.0 318.0 L 1733.0 373.0 L 188.0 373.0 Z M 188.0 318.0 "></path></clipPath><g clip-path="url(#clip0x6080004bcce0)"><text xml:space="preserve" font-family="Cochin-Italic,Cochin" font-style="italic" font-size="42.0" fill="#515151" transform="matrix(1.00, 0.00, -0.00, -1.00, 854.4, 331.8)">–</text><text xml:space="preserve" font-family="Cochin-Italic,Cochin" font-style="italic" font-size="42.0" fill="#515151" transform="matrix(1.00, 0.00, -0.00, -1.00, 875.4, 331.8)"> </text><text xml:space="preserve" font-family="Cochin-Italic,Cochin" font-style="italic" font-size="42.0" fill="#515151" transform="matrix(1.00, 0.00, -0.00, -1.00, 884.7, 331.8)">A</text><text xml:space="preserve" font-family="Cochin-Italic,Cochin" font-style="italic" font-size="42.0" fill="#515151" transform="matrix(1.00, 0.00, -0.00, -1.00, 909.6, 331.8)">n</text><text xml:space="preserve" font-family="Cochin-Italic,Cochin" font-style="italic" font-size="42.0" fill="#515151" transform="matrix(1.00, 0.00, -0.00, -1.00, 929.8, 331.8)">o</text><text xml:space="preserve" font-family="Cochin-Italic,Cochin" font-style="italic" font-size="42.0" fill="#515151" transform="matrix(1.00, 0.00, -0.00, -1.00, 946.1, 331.8)">n</text><text xml:space="preserve" font-family="Cochin-Italic,Cochin" font-style="italic" font-size="42.0" fill="#515151" transform="matrix(1.00, 0.00, -0.00, -1.00, 966.3, 331.8)">y</text><text xml:space="preserve" font-family="Cochin-Italic,Cochin" font-style="italic" font-size="42.0" fill="#515151" transform="matrix(1.00, 0.00, -0.00, -1.00, 985.0, 331.8)">m</text><text xml:space="preserve" font-family="Cochin-Italic,Cochin" font-style="italic" font-size="42.0" fill="#515151" transform="matrix(1.00, 0.00, -0.00, -1.00, 1015.3, 331.8)">o</text><text xml:space="preserve" font-family="Cochin-Italic,Cochin" font-style="italic" font-size="42.0" fill="#515151" transform="matrix(1.00, 0.00, -0.00, -1.00, 1031.6, 331.8)">u</text><text xml:space="preserve" font-family="Cochin-Italic,Cochin" font-style="italic" font-size="42.0" fill="#515151" transform="matrix(1.00, 0.00, -0.00, -1.00, 1051.8, 331.8)">s</text><text xml:space="preserve" font-family="Cochin-Italic,Cochin" font-style="italic" font-size="42.0" fill="#515151" transform="matrix(1.00, 0.00, -0.00, -1.00, 1066.6, 331.8)"> </text></g></g></g><g opacity="0.90"><g><clipPath id="clip0x6080004b23c0"><path d="M 188.0 501.0 L 1733.0 501.0 L 1733.0 637.0 L 188.0 637.0 Z M 188.0 501.0 "></path></clipPath><g clip-path="url(#clip0x6080004b23c0)"><text xml:space="preserve" font-family="Cochin,Cochin" font-size="56.0" fill="#515050" transform="matrix(1.00, 0.00, -0.00, -1.00, 223.5, 583.0)">“</text><text xml:space="preserve" font-family="Cochin,Cochin" font-size="56.0" fill="#515050" transform="matrix(1.00, 0.00, -0.00, -1.00, 245.2, 583.0)">I</text><text xml:space="preserve" font-family="Cochin,Cochin" font-size="56.0" fill="#515050" transform="matrix(1.00, 0.00, -0.00, -1.00, 267.0, 583.0)">f</text><text xml:space="preserve" font-family="Cochin,Cochin" font-size="56.0" fill="#515050" transform="matrix(1.00, 0.00, -0.00, -1.00, 284.7, 583.0)"> </text><text xml:space="preserve" font-family="Cochin,Cochin" font-size="56.0" fill="#515050" transform="matrix(1.00, 0.00, -0.00, -1.00, 298.7, 583.0)">y</text><text xml:space="preserve" font-family="Cochin,Cochin" font-size="56.0" fill="#515050" transform="matrix(1.00, 0.00, -0.00, -1.00, 326.7, 583.0)">o</text><text xml:space="preserve" font-family="Cochin,Cochin" font-size="56.0" fill="#515050" transform="matrix(1.00, 0.00, -0.00, -1.00, 354.7, 583.0)">u</text><text xml:space="preserve" font-family="Cochin,Cochin" font-size="56.0" fill="#515050" transform="matrix(1.00, 0.00, -0.00, -1.00, 384.7, 583.0)">r</text><text xml:space="preserve" font-family="Cochin,Cochin" font-size="56.0" fill="#515050" transform="matrix(1.00, 0.00, -0.00, -1.00, 406.5, 583.0)"> </text><text xml:space="preserve" font-family="Cochin,Cochin" font-size="56.0" fill="#515050" transform="matrix(1.00, 0.00, -0.00, -1.00, 420.5, 583.0)">p</text><text xml:space="preserve" font-family="Cochin,Cochin" font-size="56.0" fill="#515050" transform="matrix(1.00, 0.00, -0.00, -1.00, 450.6, 583.0)">r</text><text xml:space="preserve" font-family="Cochin,Cochin" font-size="56.0" fill="#515050" transform="matrix(1.00, 0.00, -0.00, -1.00, 472.4, 583.0)">o</text><text xml:space="preserve" font-family="Cochin,Cochin" font-size="56.0" fill="#515050" transform="matrix(1.00, 0.00, -0.00, -1.00, 500.4, 583.0)">j</text><text xml:space="preserve" font-family="Cochin,Cochin" font-size="56.0" fill="#515050" transform="matrix(1.00, 0.00, -0.00, -1.00, 514.9, 583.0)">e</text><text xml:space="preserve" font-family="Cochin,Cochin" font-size="56.0" fill="#515050" transform="matrix(1.00, 0.00, -0.00, -1.00, 539.7, 583.0)">c</text><text xml:space="preserve" font-family="Cochin,Cochin" font-size="56.0" fill="#515050" transform="matrix(1.00, 0.00, -0.00, -1.00, 564.6, 583.0)">t</text><text xml:space="preserve" font-family="Cochin,Cochin" font-size="56.0" fill="#515050" transform="matrix(1.00, 0.00, -0.00, -1.00, 582.2, 583.0)"> </text><text xml:space="preserve" font-family="Cochin,Cochin" font-size="56.0" fill="#515050" transform="matrix(1.00, 0.00, -0.00, -1.00, 596.2, 583.0)">i</text><text xml:space="preserve" font-family="Cochin,Cochin" font-size="56.0" fill="#515050" transform="matrix(1.00, 0.00, -0.00, -1.00, 610.8, 583.0)">s</text><text xml:space="preserve" font-family="Cochin,Cochin" font-size="56.0" fill="#515050" transform="matrix(1.00, 0.00, -0.00, -1.00, 632.5, 583.0)"> </text><text xml:space="preserve" font-family="Cochin,Cochin" font-size="56.0" fill="#515050" transform="matrix(1.00, 0.00, -0.00, -1.00, 646.5, 583.0)">u</text><text xml:space="preserve" font-family="Cochin,Cochin" font-size="56.0" fill="#515050" transform="matrix(1.00, 0.00, -0.00, -1.00, 676.6, 583.0)">s</text><text xml:space="preserve" font-family="Cochin,Cochin" font-size="56.0" fill="#515050" transform="matrix(1.00, 0.00, -0.00, -1.00, 698.4, 583.0)">i</text><text xml:space="preserve" font-family="Cochin,Cochin" font-size="56.0" fill="#515050" transform="matrix(1.00, 0.00, -0.00, -1.00, 712.9, 583.0)">n</text><text xml:space="preserve" font-family="Cochin,Cochin" font-size="56.0" fill="#515050" transform="matrix(1.00, 0.00, -0.00, -1.00, 743.0, 583.0)">g</text><text xml:space="preserve" font-family="Cochin,Cochin" font-size="56.0" fill="#515050" transform="matrix(1.00, 0.00, -0.00, -1.00, 771.0, 583.0)"> </text><text xml:space="preserve" font-family="Cochin,Cochin" font-size="56.0" fill="#515050" transform="matrix(1.00, 0.00, -0.00, -1.00, 785.0, 583.0)">S</text><text xml:space="preserve" font-family="Cochin,Cochin" font-size="56.0" fill="#515050" transform="matrix(1.00, 0.00, -0.00, -1.00, 818.2, 583.0)">V</text><text xml:space="preserve" font-family="Cochin,Cochin" font-size="56.0" fill="#515050" transform="matrix(1.00, 0.00, -0.00, -1.00, 857.6, 583.0)">N</text><text xml:space="preserve" font-family="Cochin,Cochin" font-size="56.0" fill="#515050" transform="matrix(1.00, 0.00, -0.00, -1.00, 903.2, 583.0)">,</text><text xml:space="preserve" font-family="Cochin,Cochin" font-size="56.0" fill="#515050" transform="matrix(1.00, 0.00, -0.00, -1.00, 917.2, 583.0)"> </text><text xml:space="preserve" font-family="Cochin,Cochin" font-size="56.0" fill="#515050" transform="matrix(1.00, 0.00, -0.00, -1.00, 931.2, 583.0)">y</text><text xml:space="preserve" font-family="Cochin,Cochin" font-size="56.0" fill="#515050" transform="matrix(1.00, 0.00, -0.00, -1.00, 959.2, 583.0)">o</text><text xml:space="preserve" font-family="Cochin,Cochin" font-size="56.0" fill="#515050" transform="matrix(1.00, 0.00, -0.00, -1.00, 987.2, 583.0)">u</text><text xml:space="preserve" font-family="Cochin,Cochin" font-size="56.0" fill="#515050" transform="matrix(1.00, 0.00, -0.00, -1.00, 1017.3, 583.0)"> </text><text xml:space="preserve" font-family="Cochin,Cochin" font-size="56.0" fill="#515050" transform="matrix(1.00, 0.00, -0.00, -1.00, 1031.3, 583.0)">c</text><text xml:space="preserve" font-family="Cochin,Cochin" font-size="56.0" fill="#515050" transform="matrix(1.00, 0.00, -0.00, -1.00, 1056.2, 583.0)">a</text><text xml:space="preserve" font-family="Cochin,Cochin" font-size="56.0" fill="#515050" transform="matrix(1.00, 0.00, -0.00, -1.00, 1082.1, 583.0)">n</text><text xml:space="preserve" font-family="Cochin,Cochin" font-size="56.0" fill="#515050" transform="matrix(1.00, 0.00, -0.00, -1.00, 1112.2, 583.0)"> </text><text xml:space="preserve" font-family="Cochin,Cochin" font-size="56.0" fill="#515050" transform="matrix(1.00, 0.00, -0.00, -1.00, 1126.2, 583.0)">a</text><text xml:space="preserve" font-family="Cochin,Cochin" font-size="56.0" fill="#515050" transform="matrix(1.00, 0.00, -0.00, -1.00, 1152.1, 583.0)">l</text><text xml:space="preserve" font-family="Cochin,Cochin" font-size="56.0" fill="#515050" transform="matrix(1.00, 0.00, -0.00, -1.00, 1166.6, 583.0)">s</text><text xml:space="preserve" font-family="Cochin,Cochin" font-size="56.0" fill="#515050" transform="matrix(1.00, 0.00, -0.00, -1.00, 1188.4, 583.0)">o</text><text xml:space="preserve" font-family="Cochin,Cochin" font-size="56.0" fill="#515050" transform="matrix(1.00, 0.00, -0.00, -1.00, 1216.4, 583.0)"> </text><text xml:space="preserve" font-family="Cochin,Cochin" font-size="56.0" fill="#515050" transform="matrix(1.00, 0.00, -0.00, -1.00, 1230.4, 583.0)">u</text><text xml:space="preserve" font-family="Cochin,Cochin" font-size="56.0" fill="#515050" transform="matrix(1.00, 0.00, -0.00, -1.00, 1260.5, 583.0)">s</text><text xml:space="preserve" font-family="Cochin,Cochin" font-size="56.0" fill="#515050" transform="matrix(1.00, 0.00, -0.00, -1.00, 1282.2, 583.0)">e</text><text xml:space="preserve" font-family="Cochin,Cochin" font-size="56.0" fill="#515050" transform="matrix(1.00, 0.00, -0.00, -1.00, 1307.1, 583.0)"> </text><text xml:space="preserve" font-family="Cochin,Cochin" font-size="56.0" fill="#515050" transform="matrix(1.00, 0.00, -0.00, -1.00, 1321.1, 583.0)">G</text><text xml:space="preserve" font-family="Cochin,Cochin" font-size="56.0" fill="#515050" transform="matrix(1.00, 0.00, -0.00, -1.00, 1364.7, 583.0)">i</text><text xml:space="preserve" font-family="Cochin,Cochin" font-size="56.0" fill="#515050" transform="matrix(1.00, 0.00, -0.00, -1.00, 1379.2, 583.0)">t</text><text xml:space="preserve" font-family="Cochin,Cochin" font-size="56.0" fill="#515050" transform="matrix(1.00, 0.00, -0.00, -1.00, 1396.8, 583.0)"> </text><text xml:space="preserve" font-family="Cochin,Cochin" font-size="56.0" fill="#515050" transform="matrix(1.00, 0.00, -0.00, -1.00, 1410.8, 583.0)">y</text><text xml:space="preserve" font-family="Cochin,Cochin" font-size="56.0" fill="#515050" transform="matrix(1.00, 0.00, -0.00, -1.00, 1438.8, 583.0)">o</text><text xml:space="preserve" font-family="Cochin,Cochin" font-size="56.0" fill="#515050" transform="matrix(1.00, 0.00, -0.00, -1.00, 1466.8, 583.0)">u</text><text xml:space="preserve" font-family="Cochin,Cochin" font-size="56.0" fill="#515050" transform="matrix(1.00, 0.00, -0.00, -1.00, 1496.9, 583.0)">r</text><text xml:space="preserve" font-family="Cochin,Cochin" font-size="56.0" fill="#515050" transform="matrix(1.00, 0.00, -0.00, -1.00, 1518.7, 583.0)">s</text><text xml:space="preserve" font-family="Cochin,Cochin" font-size="56.0" fill="#515050" transform="matrix(1.00, 0.00, -0.00, -1.00, 1540.5, 583.0)">e</text><text xml:space="preserve" font-family="Cochin,Cochin" font-size="56.0" fill="#515050" transform="matrix(1.00, 0.00, -0.00, -1.00, 1565.3, 583.0)">l</text><text xml:space="preserve" font-family="Cochin,Cochin" font-size="56.0" fill="#515050" transform="matrix(1.00, 0.00, -0.00, -1.00, 1579.8, 583.0)">f</text><text xml:space="preserve" font-family="Cochin,Cochin" font-size="56.0" fill="#515050" transform="matrix(1.00, 0.00, -0.00, -1.00, 1597.5, 583.0)"> </text><text xml:space="preserve" font-family="Cochin,Cochin" font-size="56.0" fill="#515050" transform="matrix(1.00, 0.00, -0.00, -1.00, 1611.5, 583.0)">a</text><text xml:space="preserve" font-family="Cochin,Cochin" font-size="56.0" fill="#515050" transform="matrix(1.00, 0.00, -0.00, -1.00, 1637.4, 583.0)">n</text><text xml:space="preserve" font-family="Cochin,Cochin" font-size="56.0" fill="#515050" transform="matrix(1.00, 0.00, -0.00, -1.00, 1667.5, 583.0)">d</text><text xml:space="preserve" font-family="Cochin,Cochin" font-size="56.0" fill="#515050" transform="matrix(1.00, 0.00, -0.00, -1.00, 1697.5, 583.0)"> </text><text xml:space="preserve" font-family="Cochin,Cochin" font-size="56.0" fill="#515050" transform="matrix(1.00, 0.00, -0.00, -1.00, 573.4, 519.0)">l</text><text xml:space="preserve" font-family="Cochin,Cochin" font-size="56.0" fill="#515050" transform="matrix(1.00, 0.00, -0.00, -1.00, 587.9, 519.0)">e</text><text xml:space="preserve" font-family="Cochin,Cochin" font-size="56.0" fill="#515050" transform="matrix(1.00, 0.00, -0.00, -1.00, 612.8, 519.0)">t</text><text xml:space="preserve" font-family="Cochin,Cochin" font-size="56.0" fill="#515050" transform="matrix(1.00, 0.00, -0.00, -1.00, 630.4, 519.0)"> </text><text xml:space="preserve" font-family="Cochin,Cochin" font-size="56.0" fill="#515050" transform="matrix(1.00, 0.00, -0.00, -1.00, 644.4, 519.0)">t</text><text xml:space="preserve" font-family="Cochin,Cochin" font-size="56.0" fill="#515050" transform="matrix(1.00, 0.00, -0.00, -1.00, 662.1, 519.0)">h</text><text xml:space="preserve" font-family="Cochin,Cochin" font-size="56.0" fill="#515050" transform="matrix(1.00, 0.00, -0.00, -1.00, 692.1, 519.0)">e</text><text xml:space="preserve" font-family="Cochin,Cochin" font-size="56.0" fill="#515050" transform="matrix(1.00, 0.00, -0.00, -1.00, 717.0, 519.0)"> </text><text xml:space="preserve" font-family="Cochin,Cochin" font-size="56.0" fill="#515050" transform="matrix(1.00, 0.00, -0.00, -1.00, 731.0, 519.0)">o</text><text xml:space="preserve" font-family="Cochin,Cochin" font-size="56.0" fill="#515050" transform="matrix(1.00, 0.00, -0.00, -1.00, 759.0, 519.0)">t</text><text xml:space="preserve" font-family="Cochin,Cochin" font-size="56.0" fill="#515050" transform="matrix(1.00, 0.00, -0.00, -1.00, 776.7, 519.0)">h</text><text xml:space="preserve" font-family="Cochin,Cochin" font-size="56.0" fill="#515050" transform="matrix(1.00, 0.00, -0.00, -1.00, 806.7, 519.0)">e</text><text xml:space="preserve" font-family="Cochin,Cochin" font-size="56.0" fill="#515050" transform="matrix(1.00, 0.00, -0.00, -1.00, 831.6, 519.0)">r</text><text xml:space="preserve" font-family="Cochin,Cochin" font-size="56.0" fill="#515050" transform="matrix(1.00, 0.00, -0.00, -1.00, 853.4, 519.0)">s</text><text xml:space="preserve" font-family="Cochin,Cochin" font-size="56.0" fill="#515050" transform="matrix(1.00, 0.00, -0.00, -1.00, 875.2, 519.0)"> </text><text xml:space="preserve" font-family="Cochin,Cochin" font-size="56.0" fill="#515050" transform="matrix(1.00, 0.00, -0.00, -1.00, 889.2, 519.0)">s</text><text xml:space="preserve" font-family="Cochin,Cochin" font-size="56.0" fill="#515050" transform="matrix(1.00, 0.00, -0.00, -1.00, 910.9, 519.0)">t</text><text xml:space="preserve" font-family="Cochin,Cochin" font-size="56.0" fill="#515050" transform="matrix(1.00, 0.00, -0.00, -1.00, 928.6, 519.0)">r</text><text xml:space="preserve" font-family="Cochin,Cochin" font-size="56.0" fill="#515050" transform="matrix(1.00, 0.00, -0.00, -1.00, 950.4, 519.0)">u</text><text xml:space="preserve" font-family="Cochin,Cochin" font-size="56.0" fill="#515050" transform="matrix(1.00, 0.00, -0.00, -1.00, 980.4, 519.0)">g</text><text xml:space="preserve" font-family="Cochin,Cochin" font-size="56.0" fill="#515050" transform="matrix(1.00, 0.00, -0.00, -1.00, 1008.4, 519.0)">g</text><text xml:space="preserve" font-family="Cochin,Cochin" font-size="56.0" fill="#515050" transform="matrix(1.00, 0.00, -0.00, -1.00, 1036.4, 519.0)">l</text><text xml:space="preserve" font-family="Cochin,Cochin" font-size="56.0" fill="#515050" transform="matrix(1.00, 0.00, -0.00, -1.00, 1050.9, 519.0)">e</text><text xml:space="preserve" font-family="Cochin,Cochin" font-size="56.0" fill="#515050" transform="matrix(1.00, 0.00, -0.00, -1.00, 1075.8, 519.0)"> </text><text xml:space="preserve" font-family="Cochin,Cochin" font-size="56.0" fill="#515050" transform="matrix(1.00, 0.00, -0.00, -1.00, 1089.8, 519.0)">w</text><text xml:space="preserve" font-family="Cochin,Cochin" font-size="56.0" fill="#515050" transform="matrix(1.00, 0.00, -0.00, -1.00, 1131.3, 519.0)">i</text><text xml:space="preserve" font-family="Cochin,Cochin" font-size="56.0" fill="#515050" transform="matrix(1.00, 0.00, -0.00, -1.00, 1145.8, 519.0)">t</text><text xml:space="preserve" font-family="Cochin,Cochin" font-size="56.0" fill="#515050" transform="matrix(1.00, 0.00, -0.00, -1.00, 1163.4, 519.0)">h</text><text xml:space="preserve" font-family="Cochin,Cochin" font-size="56.0" fill="#515050" transform="matrix(1.00, 0.00, -0.00, -1.00, 1193.5, 519.0)"> </text><text xml:space="preserve" font-family="Cochin,Cochin" font-size="56.0" fill="#515050" transform="matrix(1.00, 0.00, -0.00, -1.00, 1207.5, 519.0)">S</text><text xml:space="preserve" font-family="Cochin,Cochin" font-size="56.0" fill="#515050" transform="matrix(1.00, 0.00, -0.00, -1.00, 1240.7, 519.0)">V</text><text xml:space="preserve" font-family="Cochin,Cochin" font-size="56.0" fill="#515050" transform="matrix(1.00, 0.00, -0.00, -1.00, 1280.1, 519.0)">N</text></g></g></g><g opacity="0.90"><g><clipPath id="clip0x6000008bcc20"><path d="M 947.0 14.0 L 971.0 14.0 L 971.0 55.0 L 947.0 55.0 Z M 947.0 14.0 "></path></clipPath><g clip-path="url(#clip0x6000008bcc20)"><text xml:space="preserve" font-family="Cochin,Cochin" font-size="28.0" fill="#515050" transform="matrix(1.00, 0.00, -0.00, -1.00, 952.0, 26.0)">2</text></g></g></g></g></svg>