<?xml version="1.0" encoding="UTF-8" standalone="no"?><svg xmlns="http://www.w3.org/2000/svg" xmlns:xlink="http://www.w3.org/1999/xlink" clip-rule="evenodd" stroke-miterlimit="10" viewBox="0 0 1920 1080"><desc>SVG generated by Keynote</desc><defs></defs><g transform="matrix(1.00, 0.00, -0.00, -1.00, 0.0, 1080.0)"><g><clipPath id="clip0x600000aa1f20"><path d="M 0.0 1080.0 L 1920.0 1080.0 L 1920.0 0.0 L 0.0 0.0 Z M 0.0 1080.0 "></path></clipPath><g clip-path="url(#clip0x600000aa1f20)"><image xlink:href="../../5D8AB9B9-3D8E-4B06-B542-BC95DAAA4419/assets/18F8971E445B25125F850F9CF2CFFF78.jpeg" width="3840.00" height="2160.00" transform="matrix(0.50, 0.00, -0.00, -0.50, 0.0, 1080.0)"></image></g></g><g opacity="0.90"><image xlink:href="../../9F6C4154-61E2-4FBB-8977-BB27B3B3A538/assets/D4AAEE0179825324967F5B1B40D3B5E7.png" width="1592.00" height="107.00" transform="matrix(1.00, 0.00, -0.00, -1.00, 166.0, 956.0)"></image><g><clipPath id="clip0x600000aa23a0"><path d="M 120.0 810.0 L 1800.0 810.0 L 1800.0 1020.0 L 120.0 1020.0 Z M 120.0 810.0 "></path></clipPath><g clip-path="url(#clip0x600000aa23a0)"><text xml:space="preserve" font-family="Cochin,Cochin" font-size="104.0" fill="#515151" transform="matrix(1.00, 0.00, -0.00, -1.00, 166.6, 881.0)">M</text><text xml:space="preserve" font-family="Cochin,Cochin" font-size="104.0" fill="#515151" transform="matrix(1.00, 0.00, -0.00, -1.00, 266.8, 881.0)">i</text><text xml:space="preserve" font-family="Cochin,Cochin" font-size="104.0" fill="#515151" transform="matrix(1.00, 0.00, -0.00, -1.00, 293.7, 881.0)">n</text><text xml:space="preserve" font-family="Cochin,Cochin" font-size="104.0" fill="#515151" transform="matrix(1.00, 0.00, -0.00, -1.00, 349.6, 881.0)">i</text><text xml:space="preserve" font-family="Cochin,Cochin" font-size="104.0" fill="#515151" transform="matrix(1.00, 0.00, -0.00, -1.00, 376.5, 881.0)">m</text><text xml:space="preserve" font-family="Cochin,Cochin" font-size="104.0" fill="#515151" transform="matrix(1.00, 0.00, -0.00, -1.00, 457.4, 881.0)">a</text><text xml:space="preserve" font-family="Cochin,Cochin" font-size="104.0" fill="#515151" transform="matrix(1.00, 0.00, -0.00, -1.00, 505.6, 881.0)">l</text><text xml:space="preserve" font-family="Cochin,Cochin" font-size="104.0" fill="#515151" transform="matrix(1.00, 0.00, -0.00, -1.00, 532.5, 881.0)"> </text><text xml:space="preserve" font-family="Cochin,Cochin" font-size="104.0" fill="#515151" transform="matrix(1.00, 0.00, -0.00, -1.00, 558.5, 881.0)">R</text><text xml:space="preserve" font-family="Cochin,Cochin" font-size="104.0" fill="#515151" transform="matrix(1.00, 0.00, -0.00, -1.00, 633.6, 881.0)">e</text><text xml:space="preserve" font-family="Cochin,Cochin" font-size="104.0" fill="#515151" transform="matrix(1.00, 0.00, -0.00, -1.00, 679.8, 881.0)">q</text><text xml:space="preserve" font-family="Cochin,Cochin" font-size="104.0" fill="#515151" transform="matrix(1.00, 0.00, -0.00, -1.00, 735.6, 881.0)">u</text><text xml:space="preserve" font-family="Cochin,Cochin" font-size="104.0" fill="#515151" transform="matrix(1.00, 0.00, -0.00, -1.00, 791.5, 881.0)">i</text><text xml:space="preserve" font-family="Cochin,Cochin" font-size="104.0" fill="#515151" transform="matrix(1.00, 0.00, -0.00, -1.00, 818.4, 881.0)">r</text><text xml:space="preserve" font-family="Cochin,Cochin" font-size="104.0" fill="#515151" transform="matrix(1.00, 0.00, -0.00, -1.00, 858.9, 881.0)">e</text><text xml:space="preserve" font-family="Cochin,Cochin" font-size="104.0" fill="#515151" transform="matrix(1.00, 0.00, -0.00, -1.00, 905.0, 881.0)">d</text><text xml:space="preserve" font-family="Cochin,Cochin" font-size="104.0" fill="#515151" transform="matrix(1.00, 0.00, -0.00, -1.00, 960.9, 881.0)"> </text><text xml:space="preserve" font-family="Cochin,Cochin" font-size="104.0" fill="#515151" transform="matrix(1.00, 0.00, -0.00, -1.00, 986.9, 881.0)">K</text><text xml:space="preserve" font-family="Cochin,Cochin" font-size="104.0" fill="#515151" transform="matrix(1.00, 0.00, -0.00, -1.00, 1063.9, 881.0)">n</text><text xml:space="preserve" font-family="Cochin,Cochin" font-size="104.0" fill="#515151" transform="matrix(1.00, 0.00, -0.00, -1.00, 1119.8, 881.0)">o</text><text xml:space="preserve" font-family="Cochin,Cochin" font-size="104.0" fill="#515151" transform="matrix(1.00, 0.00, -0.00, -1.00, 1171.8, 881.0)">w</text><text xml:space="preserve" font-family="Cochin,Cochin" font-size="104.0" fill="#515151" transform="matrix(1.00, 0.00, -0.00, -1.00, 1248.9, 881.0)">l</text><text xml:space="preserve" font-family="Cochin,Cochin" font-size="104.0" fill="#515151" transform="matrix(1.00, 0.00, -0.00, -1.00, 1275.8, 881.0)">e</text><text xml:space="preserve" font-family="Cochin,Cochin" font-size="104.0" fill="#515151" transform="matrix(1.00, 0.00, -0.00, -1.00, 1322.0, 881.0)">d</text><text xml:space="preserve" font-family="Cochin,Cochin" font-size="104.0" fill="#515151" transform="matrix(1.00, 0.00, -0.00, -1.00, 1377.8, 881.0)">g</text><text xml:space="preserve" font-family="Cochin,Cochin" font-size="104.0" fill="#515151" transform="matrix(1.00, 0.00, -0.00, -1.00, 1429.8, 881.0)">e</text><text xml:space="preserve" font-family="Cochin,Cochin" font-size="104.0" fill="#515151" transform="matrix(1.00, 0.00, -0.00, -1.00, 1476.0, 881.0)"> </text><text xml:space="preserve" font-family="Cochin,Cochin" font-size="104.0" fill="#515151" transform="matrix(1.00, 0.00, -0.00, -1.00, 1502.0, 881.0)">o</text><text xml:space="preserve" font-family="Cochin,Cochin" font-size="104.0" fill="#515151" transform="matrix(1.00, 0.00, -0.00, -1.00, 1554.0, 881.0)">f</text><text xml:space="preserve" font-family="Cochin,Cochin" font-size="104.0" fill="#515151" transform="matrix(1.00, 0.00, -0.00, -1.00, 1586.8, 881.0)"> </text><text xml:space="preserve" font-family="Cochin,Cochin" font-size="104.0" fill="#515151" transform="matrix(1.00, 0.00, -0.00, -1.00, 1612.8, 881.0)">G</text><text xml:space="preserve" font-family="Cochin,Cochin" font-size="104.0" fill="#515151" transform="matrix(1.00, 0.00, -0.00, -1.00, 1693.7, 881.0)">i</text><text xml:space="preserve" font-family="Cochin,Cochin" font-size="104.0" fill="#515151" transform="matrix(1.00, 0.00, -0.00, -1.00, 1720.6, 881.0)">t</text></g></g></g><g opacity="0.90"><g><clipPath id="clip0x600000aa31e0"><path d="M 120.0 140.0 L 1800.0 140.0 L 1800.0 770.0 L 120.0 770.0 Z M 120.0 140.0 "></path></clipPath><g clip-path="url(#clip0x600000aa31e0)"><text xml:space="preserve" font-family="Cochin,Cochin" font-size="42.0" fill="#515050" transform="matrix(1.00, 0.00, -0.00, -1.00, 124.0, 720.0)">•</text><text xml:space="preserve" font-family="Cochin,Cochin" font-size="56.0" fill="#515151" transform="matrix(1.00, 0.00, -0.00, -1.00, 174.0, 716.0)">`</text><text xml:space="preserve" font-family="Cochin,Cochin" font-size="56.0" fill="#515151" transform="matrix(1.00, 0.00, -0.00, -1.00, 188.5, 716.0)">.</text><text xml:space="preserve" font-family="Cochin,Cochin" font-size="56.0" fill="#515151" transform="matrix(1.00, 0.00, -0.00, -1.00, 202.5, 716.0)">g</text><text xml:space="preserve" font-family="Cochin,Cochin" font-size="56.0" fill="#515151" transform="matrix(1.00, 0.00, -0.00, -1.00, 230.5, 716.0)">i</text><text xml:space="preserve" font-family="Cochin,Cochin" font-size="56.0" fill="#515151" transform="matrix(1.00, 0.00, -0.00, -1.00, 245.0, 716.0)">t</text><text xml:space="preserve" font-family="Cochin,Cochin" font-size="56.0" fill="#515151" transform="matrix(1.00, 0.00, -0.00, -1.00, 262.6, 716.0)">i</text><text xml:space="preserve" font-family="Cochin,Cochin" font-size="56.0" fill="#515151" transform="matrix(1.00, 0.00, -0.00, -1.00, 277.2, 716.0)">g</text><text xml:space="preserve" font-family="Cochin,Cochin" font-size="56.0" fill="#515151" transform="matrix(1.00, 0.00, -0.00, -1.00, 305.2, 716.0)">n</text><text xml:space="preserve" font-family="Cochin,Cochin" font-size="56.0" fill="#515151" transform="matrix(1.00, 0.00, -0.00, -1.00, 335.2, 716.0)">o</text><text xml:space="preserve" font-family="Cochin,Cochin" font-size="56.0" fill="#515151" transform="matrix(1.00, 0.00, -0.00, -1.00, 363.2, 716.0)">r</text><text xml:space="preserve" font-family="Cochin,Cochin" font-size="56.0" fill="#515151" transform="matrix(1.00, 0.00, -0.00, -1.00, 385.0, 716.0)">e</text><text xml:space="preserve" font-family="Cochin,Cochin" font-size="56.0" fill="#515151" transform="matrix(1.00, 0.00, -0.00, -1.00, 409.9, 716.0)">`</text><text xml:space="preserve" font-family="Cochin,Cochin" font-size="42.0" fill="#515050" transform="matrix(1.00, 0.00, -0.00, -1.00, 124.0, 600.0)">•</text><text xml:space="preserve" font-family="Cochin,Cochin" font-size="56.0" fill="#515151" transform="matrix(1.00, 0.00, -0.00, -1.00, 174.0, 596.0)">i</text><text xml:space="preserve" font-family="Cochin,Cochin" font-size="56.0" fill="#515151" transform="matrix(1.00, 0.00, -0.00, -1.00, 188.5, 596.0)">n</text><text xml:space="preserve" font-family="Cochin,Cochin" font-size="56.0" fill="#515151" transform="matrix(1.00, 0.00, -0.00, -1.00, 218.6, 596.0)">i</text><text xml:space="preserve" font-family="Cochin,Cochin" font-size="56.0" fill="#515151" transform="matrix(1.00, 0.00, -0.00, -1.00, 233.1, 596.0)">t</text><text xml:space="preserve" font-family="Cochin,Cochin" font-size="56.0" fill="#515151" transform="matrix(1.00, 0.00, -0.00, -1.00, 250.7, 596.0)">i</text><text xml:space="preserve" font-family="Cochin,Cochin" font-size="56.0" fill="#515151" transform="matrix(1.00, 0.00, -0.00, -1.00, 265.2, 596.0)">a</text><text xml:space="preserve" font-family="Cochin,Cochin" font-size="56.0" fill="#515151" transform="matrix(1.00, 0.00, -0.00, -1.00, 291.2, 596.0)">l</text><text xml:space="preserve" font-family="Cochin,Cochin" font-size="56.0" fill="#515151" transform="matrix(1.00, 0.00, -0.00, -1.00, 305.7, 596.0)">i</text><text xml:space="preserve" font-family="Cochin,Cochin" font-size="56.0" fill="#515151" transform="matrix(1.00, 0.00, -0.00, -1.00, 320.2, 596.0)">s</text><text xml:space="preserve" font-family="Cochin,Cochin" font-size="56.0" fill="#515151" transform="matrix(1.00, 0.00, -0.00, -1.00, 341.9, 596.0)">e</text><text xml:space="preserve" font-family="Cochin,Cochin" font-size="56.0" fill="#515151" transform="matrix(1.00, 0.00, -0.00, -1.00, 366.8, 596.0)"> </text><text xml:space="preserve" font-family="Cochin,Cochin" font-size="56.0" fill="#515151" transform="matrix(1.00, 0.00, -0.00, -1.00, 380.8, 596.0)">—</text><text xml:space="preserve" font-family="Cochin,Cochin" font-size="56.0" fill="#515151" transform="matrix(1.00, 0.00, -0.00, -1.00, 436.8, 596.0)"> </text><text xml:space="preserve" font-family="Cochin,Cochin" font-size="56.0" fill="#515151" transform="matrix(1.00, 0.00, -0.00, -1.00, 450.8, 596.0)">`</text><text xml:space="preserve" font-family="Cochin,Cochin" font-size="56.0" fill="#515151" transform="matrix(1.00, 0.00, -0.00, -1.00, 465.3, 596.0)">.</text><text xml:space="preserve" font-family="Cochin,Cochin" font-size="56.0" fill="#515151" transform="matrix(1.00, 0.00, -0.00, -1.00, 479.3, 596.0)">g</text><text xml:space="preserve" font-family="Cochin,Cochin" font-size="56.0" fill="#515151" transform="matrix(1.00, 0.00, -0.00, -1.00, 507.3, 596.0)">i</text><text xml:space="preserve" font-family="Cochin,Cochin" font-size="56.0" fill="#515151" transform="matrix(1.00, 0.00, -0.00, -1.00, 521.8, 596.0)">t</text><text xml:space="preserve" font-family="Cochin,Cochin" font-size="56.0" fill="#515151" transform="matrix(1.00, 0.00, -0.00, -1.00, 539.5, 596.0)">/</text><text xml:space="preserve" font-family="Cochin,Cochin" font-size="56.0" fill="#515151" transform="matrix(1.00, 0.00, -0.00, -1.00, 555.0, 596.0)">`</text><text xml:space="preserve" font-family="Cochin,Cochin" font-size="42.0" fill="#515050" transform="matrix(1.00, 0.00, -0.00, -1.00, 124.0, 480.0)">•</text><text xml:space="preserve" font-family="Cochin,Cochin" font-size="56.0" fill="#515151" transform="matrix(1.00, 0.00, -0.00, -1.00, 174.0, 476.0)">s</text><text xml:space="preserve" font-family="Cochin,Cochin" font-size="56.0" fill="#515151" transform="matrix(1.00, 0.00, -0.00, -1.00, 195.8, 476.0)">t</text><text xml:space="preserve" font-family="Cochin,Cochin" font-size="56.0" fill="#515151" transform="matrix(1.00, 0.00, -0.00, -1.00, 213.4, 476.0)">a</text><text xml:space="preserve" font-family="Cochin,Cochin" font-size="56.0" fill="#515151" transform="matrix(1.00, 0.00, -0.00, -1.00, 239.4, 476.0)">g</text><text xml:space="preserve" font-family="Cochin,Cochin" font-size="56.0" fill="#515151" transform="matrix(1.00, 0.00, -0.00, -1.00, 267.4, 476.0)">i</text><text xml:space="preserve" font-family="Cochin,Cochin" font-size="56.0" fill="#515151" transform="matrix(1.00, 0.00, -0.00, -1.00, 281.9, 476.0)">n</text><text xml:space="preserve" font-family="Cochin,Cochin" font-size="56.0" fill="#515151" transform="matrix(1.00, 0.00, -0.00, -1.00, 311.9, 476.0)">g</text><text xml:space="preserve" font-family="Cochin,Cochin" font-size="56.0" fill="#515151" transform="matrix(1.00, 0.00, -0.00, -1.00, 339.9, 476.0)">/</text><text xml:space="preserve" font-family="Cochin,Cochin" font-size="56.0" fill="#515151" transform="matrix(1.00, 0.00, -0.00, -1.00, 355.5, 476.0)">c</text><text xml:space="preserve" font-family="Cochin,Cochin" font-size="56.0" fill="#515151" transform="matrix(1.00, 0.00, -0.00, -1.00, 380.4, 476.0)">o</text><text xml:space="preserve" font-family="Cochin,Cochin" font-size="56.0" fill="#515151" transform="matrix(1.00, 0.00, -0.00, -1.00, 408.4, 476.0)">m</text><text xml:space="preserve" font-family="Cochin,Cochin" font-size="56.0" fill="#515151" transform="matrix(1.00, 0.00, -0.00, -1.00, 451.9, 476.0)">m</text><text xml:space="preserve" font-family="Cochin,Cochin" font-size="56.0" fill="#515151" transform="matrix(1.00, 0.00, -0.00, -1.00, 495.5, 476.0)">i</text><text xml:space="preserve" font-family="Cochin,Cochin" font-size="56.0" fill="#515151" transform="matrix(1.00, 0.00, -0.00, -1.00, 510.0, 476.0)">t</text><text xml:space="preserve" font-family="Cochin,Cochin" font-size="56.0" fill="#515151" transform="matrix(1.00, 0.00, -0.00, -1.00, 527.6, 476.0)">/</text><text xml:space="preserve" font-family="Cochin,Cochin" font-size="56.0" fill="#515151" transform="matrix(1.00, 0.00, -0.00, -1.00, 543.2, 476.0)">t</text><text xml:space="preserve" font-family="Cochin,Cochin" font-size="56.0" fill="#515151" transform="matrix(1.00, 0.00, -0.00, -1.00, 560.8, 476.0)">a</text><text xml:space="preserve" font-family="Cochin,Cochin" font-size="56.0" fill="#515151" transform="matrix(1.00, 0.00, -0.00, -1.00, 586.8, 476.0)">g</text><text xml:space="preserve" font-family="Cochin,Cochin" font-size="42.0" fill="#515050" transform="matrix(1.00, 0.00, -0.00, -1.00, 124.0, 360.0)">•</text><text xml:space="preserve" font-family="Cochin,Cochin" font-size="56.0" fill="#515151" transform="matrix(1.00, 0.00, -0.00, -1.00, 174.0, 356.0)">b</text><text xml:space="preserve" font-family="Cochin,Cochin" font-size="56.0" fill="#515151" transform="matrix(1.00, 0.00, -0.00, -1.00, 204.1, 356.0)">r</text><text xml:space="preserve" font-family="Cochin,Cochin" font-size="56.0" fill="#515151" transform="matrix(1.00, 0.00, -0.00, -1.00, 225.9, 356.0)">a</text><text xml:space="preserve" font-family="Cochin,Cochin" font-size="56.0" fill="#515151" transform="matrix(1.00, 0.00, -0.00, -1.00, 251.8, 356.0)">n</text><text xml:space="preserve" font-family="Cochin,Cochin" font-size="56.0" fill="#515151" transform="matrix(1.00, 0.00, -0.00, -1.00, 281.9, 356.0)">c</text><text xml:space="preserve" font-family="Cochin,Cochin" font-size="56.0" fill="#515151" transform="matrix(1.00, 0.00, -0.00, -1.00, 306.7, 356.0)">h</text><text xml:space="preserve" font-family="Cochin,Cochin" font-size="56.0" fill="#515151" transform="matrix(1.00, 0.00, -0.00, -1.00, 336.8, 356.0)">/</text><text xml:space="preserve" font-family="Cochin,Cochin" font-size="56.0" fill="#515151" transform="matrix(1.00, 0.00, -0.00, -1.00, 352.4, 356.0)">c</text><text xml:space="preserve" font-family="Cochin,Cochin" font-size="56.0" fill="#515151" transform="matrix(1.00, 0.00, -0.00, -1.00, 377.2, 356.0)">h</text><text xml:space="preserve" font-family="Cochin,Cochin" font-size="56.0" fill="#515151" transform="matrix(1.00, 0.00, -0.00, -1.00, 407.3, 356.0)">e</text><text xml:space="preserve" font-family="Cochin,Cochin" font-size="56.0" fill="#515151" transform="matrix(1.00, 0.00, -0.00, -1.00, 432.2, 356.0)">c</text><text xml:space="preserve" font-family="Cochin,Cochin" font-size="56.0" fill="#515151" transform="matrix(1.00, 0.00, -0.00, -1.00, 457.0, 356.0)">k</text><text xml:space="preserve" font-family="Cochin,Cochin" font-size="56.0" fill="#515151" transform="matrix(1.00, 0.00, -0.00, -1.00, 487.1, 356.0)">o</text><text xml:space="preserve" font-family="Cochin,Cochin" font-size="56.0" fill="#515151" transform="matrix(1.00, 0.00, -0.00, -1.00, 515.1, 356.0)">u</text><text xml:space="preserve" font-family="Cochin,Cochin" font-size="56.0" fill="#515151" transform="matrix(1.00, 0.00, -0.00, -1.00, 545.2, 356.0)">t</text><text xml:space="preserve" font-family="Cochin,Cochin" font-size="56.0" fill="#515151" transform="matrix(1.00, 0.00, -0.00, -1.00, 562.8, 356.0)">/</text><text xml:space="preserve" font-family="Cochin,Cochin" font-size="56.0" fill="#515151" transform="matrix(1.00, 0.00, -0.00, -1.00, 578.4, 356.0)">m</text><text xml:space="preserve" font-family="Cochin,Cochin" font-size="56.0" fill="#515151" transform="matrix(1.00, 0.00, -0.00, -1.00, 621.9, 356.0)">e</text><text xml:space="preserve" font-family="Cochin,Cochin" font-size="56.0" fill="#515151" transform="matrix(1.00, 0.00, -0.00, -1.00, 646.8, 356.0)">r</text><text xml:space="preserve" font-family="Cochin,Cochin" font-size="56.0" fill="#515151" transform="matrix(1.00, 0.00, -0.00, -1.00, 668.6, 356.0)">g</text><text xml:space="preserve" font-family="Cochin,Cochin" font-size="56.0" fill="#515151" transform="matrix(1.00, 0.00, -0.00, -1.00, 696.6, 356.0)">e</text></g></g></g><g opacity="0.90"><g><clipPath id="clip0x600000aa52e0"><path d="M 940.0 14.0 L 978.0 14.0 L 978.0 55.0 L 940.0 55.0 Z M 940.0 14.0 "></path></clipPath><g clip-path="url(#clip0x600000aa52e0)"><text xml:space="preserve" font-family="Cochin,Cochin" font-size="28.0" fill="#515050" transform="matrix(1.00, 0.00, -0.00, -1.00, 945.0, 26.0)">1</text><text xml:space="preserve" font-family="Cochin,Cochin" font-size="28.0" fill="#515050" transform="matrix(1.00, 0.00, -0.00, -1.00, 959.0, 26.0)">0</text></g></g></g></g></svg>