<?xml version="1.0" encoding="UTF-8" standalone="no"?><svg xmlns="http://www.w3.org/2000/svg" xmlns:xlink="http://www.w3.org/1999/xlink" clip-rule="evenodd" stroke-miterlimit="10" viewBox="0 0 1920 1080"><desc>SVG generated by Keynote</desc><defs></defs><g transform="matrix(1.00, 0.00, -0.00, -1.00, 0.0, 1080.0)"><g><clipPath id="clip0x600000ab6b00"><path d="M 0.0 1080.0 L 1920.0 1080.0 L 1920.0 0.0 L 0.0 0.0 Z M 0.0 1080.0 "></path></clipPath><g clip-path="url(#clip0x600000ab6b00)"><image xlink:href="../../5D8AB9B9-3D8E-4B06-B542-BC95DAAA4419/assets/18F8971E445B25125F850F9CF2CFFF78.jpeg" width="3840.00" height="2160.00" transform="matrix(0.50, 0.00, -0.00, -0.50, 0.0, 1080.0)"></image></g></g><g opacity="0.90"><image xlink:href="88CFD811B79972245AD6790C8682304B.png" width="566.00" height="107.00" transform="matrix(1.00, 0.00, -0.00, -1.00, 680.0, 956.0)"></image><g><clipPath id="clip0x6080006b90e0"><path d="M 120.0 810.0 L 1800.0 810.0 L 1800.0 1020.0 L 120.0 1020.0 Z M 120.0 810.0 "></path></clipPath><g clip-path="url(#clip0x6080006b90e0)"><text xml:space="preserve" font-family="Cochin,Cochin" font-size="104.0" fill="#515151" transform="matrix(1.00, 0.00, -0.00, -1.00, 675.5, 881.0)">O</text><text xml:space="preserve" font-family="Cochin,Cochin" font-size="104.0" fill="#515151" transform="matrix(1.00, 0.00, -0.00, -1.00, 762.1, 881.0)">t</text><text xml:space="preserve" font-family="Cochin,Cochin" font-size="104.0" fill="#515151" transform="matrix(1.00, 0.00, -0.00, -1.00, 794.9, 881.0)">h</text><text xml:space="preserve" font-family="Cochin,Cochin" font-size="104.0" fill="#515151" transform="matrix(1.00, 0.00, -0.00, -1.00, 850.7, 881.0)">e</text><text xml:space="preserve" font-family="Cochin,Cochin" font-size="104.0" fill="#515151" transform="matrix(1.00, 0.00, -0.00, -1.00, 896.9, 881.0)">r</text><text xml:space="preserve" font-family="Cochin,Cochin" font-size="104.0" fill="#515151" transform="matrix(1.00, 0.00, -0.00, -1.00, 937.4, 881.0)"> </text><text xml:space="preserve" font-family="Cochin,Cochin" font-size="104.0" fill="#515151" transform="matrix(1.00, 0.00, -0.00, -1.00, 963.4, 881.0)">T</text><text xml:space="preserve" font-family="Cochin,Cochin" font-size="104.0" fill="#515151" transform="matrix(1.00, 0.00, -0.00, -1.00, 1023.1, 881.0)">o</text><text xml:space="preserve" font-family="Cochin,Cochin" font-size="104.0" fill="#515151" transform="matrix(1.00, 0.00, -0.00, -1.00, 1075.1, 881.0)">p</text><text xml:space="preserve" font-family="Cochin,Cochin" font-size="104.0" fill="#515151" transform="matrix(1.00, 0.00, -0.00, -1.00, 1130.9, 881.0)">i</text><text xml:space="preserve" font-family="Cochin,Cochin" font-size="104.0" fill="#515151" transform="matrix(1.00, 0.00, -0.00, -1.00, 1157.9, 881.0)">c</text><text xml:space="preserve" font-family="Cochin,Cochin" font-size="104.0" fill="#515151" transform="matrix(1.00, 0.00, -0.00, -1.00, 1204.0, 881.0)">s</text></g></g></g><g opacity="0.90"><g><clipPath id="clip0x6080006b9b60"><path d="M 120.0 140.0 L 1800.0 140.0 L 1800.0 770.0 L 120.0 770.0 Z M 120.0 140.0 "></path></clipPath><g clip-path="url(#clip0x6080006b9b60)"><text xml:space="preserve" font-family="Cochin,Cochin" font-size="42.0" fill="#515050" transform="matrix(1.00, 0.00, -0.00, -1.00, 124.0, 717.7)">•</text><text xml:space="preserve" font-family="Cochin,Cochin" font-size="56.0" fill="#515151" transform="matrix(1.00, 0.00, -0.00, -1.00, 174.0, 716.0)">V</text><text xml:space="preserve" font-family="Cochin,Cochin" font-size="56.0" fill="#515151" transform="matrix(1.00, 0.00, -0.00, -1.00, 211.4, 716.0)">i</text><text xml:space="preserve" font-family="Cochin,Cochin" font-size="56.0" fill="#515151" transform="matrix(1.00, 0.00, -0.00, -1.00, 225.9, 716.0)">r</text><text xml:space="preserve" font-family="Cochin,Cochin" font-size="56.0" fill="#515151" transform="matrix(1.00, 0.00, -0.00, -1.00, 247.6, 716.0)">t</text><text xml:space="preserve" font-family="Cochin,Cochin" font-size="56.0" fill="#515151" transform="matrix(1.00, 0.00, -0.00, -1.00, 265.3, 716.0)">u</text><text xml:space="preserve" font-family="Cochin,Cochin" font-size="56.0" fill="#515151" transform="matrix(1.00, 0.00, -0.00, -1.00, 295.4, 716.0)">a</text><text xml:space="preserve" font-family="Cochin,Cochin" font-size="56.0" fill="#515151" transform="matrix(1.00, 0.00, -0.00, -1.00, 321.3, 716.0)">l</text><text xml:space="preserve" font-family="Cochin,Cochin" font-size="56.0" fill="#515151" transform="matrix(1.00, 0.00, -0.00, -1.00, 335.8, 716.0)">i</text><text xml:space="preserve" font-family="Cochin,Cochin" font-size="56.0" fill="#515151" transform="matrix(1.00, 0.00, -0.00, -1.00, 350.3, 716.0)">s</text><text xml:space="preserve" font-family="Cochin,Cochin" font-size="56.0" fill="#515151" transform="matrix(1.00, 0.00, -0.00, -1.00, 372.1, 716.0)">e</text><text xml:space="preserve" font-family="Cochin,Cochin" font-size="56.0" fill="#515151" transform="matrix(1.00, 0.00, -0.00, -1.00, 396.9, 716.0)"> </text><text xml:space="preserve" font-family="Cochin,Cochin" font-size="56.0" fill="#515151" transform="matrix(1.00, 0.00, -0.00, -1.00, 410.9, 716.0)">y</text><text xml:space="preserve" font-family="Cochin,Cochin" font-size="56.0" fill="#515151" transform="matrix(1.00, 0.00, -0.00, -1.00, 438.9, 716.0)">o</text><text xml:space="preserve" font-family="Cochin,Cochin" font-size="56.0" fill="#515151" transform="matrix(1.00, 0.00, -0.00, -1.00, 466.9, 716.0)">u</text><text xml:space="preserve" font-family="Cochin,Cochin" font-size="56.0" fill="#515151" transform="matrix(1.00, 0.00, -0.00, -1.00, 497.0, 716.0)">r</text><text xml:space="preserve" font-family="Cochin,Cochin" font-size="56.0" fill="#515151" transform="matrix(1.00, 0.00, -0.00, -1.00, 518.8, 716.0)"> </text><text xml:space="preserve" font-family="Cochin,Cochin" font-size="56.0" fill="#515151" transform="matrix(1.00, 0.00, -0.00, -1.00, 532.8, 716.0)">d</text><text xml:space="preserve" font-family="Cochin,Cochin" font-size="56.0" fill="#515151" transform="matrix(1.00, 0.00, -0.00, -1.00, 562.9, 716.0)">e</text><text xml:space="preserve" font-family="Cochin,Cochin" font-size="56.0" fill="#515151" transform="matrix(1.00, 0.00, -0.00, -1.00, 587.7, 716.0)">v</text><text xml:space="preserve" font-family="Cochin,Cochin" font-size="56.0" fill="#515151" transform="matrix(1.00, 0.00, -0.00, -1.00, 615.7, 716.0)">e</text><text xml:space="preserve" font-family="Cochin,Cochin" font-size="56.0" fill="#515151" transform="matrix(1.00, 0.00, -0.00, -1.00, 640.6, 716.0)">l</text><text xml:space="preserve" font-family="Cochin,Cochin" font-size="56.0" fill="#515151" transform="matrix(1.00, 0.00, -0.00, -1.00, 655.1, 716.0)">o</text><text xml:space="preserve" font-family="Cochin,Cochin" font-size="56.0" fill="#515151" transform="matrix(1.00, 0.00, -0.00, -1.00, 683.1, 716.0)">p</text><text xml:space="preserve" font-family="Cochin,Cochin" font-size="56.0" fill="#515151" transform="matrix(1.00, 0.00, -0.00, -1.00, 713.2, 716.0)">m</text><text xml:space="preserve" font-family="Cochin,Cochin" font-size="56.0" fill="#515151" transform="matrix(1.00, 0.00, -0.00, -1.00, 756.7, 716.0)">e</text><text xml:space="preserve" font-family="Cochin,Cochin" font-size="56.0" fill="#515151" transform="matrix(1.00, 0.00, -0.00, -1.00, 781.6, 716.0)">n</text><text xml:space="preserve" font-family="Cochin,Cochin" font-size="56.0" fill="#515151" transform="matrix(1.00, 0.00, -0.00, -1.00, 811.7, 716.0)">t</text><text xml:space="preserve" font-family="Cochin,Cochin" font-size="56.0" fill="#515151" transform="matrix(1.00, 0.00, -0.00, -1.00, 829.3, 716.0)"> </text><text xml:space="preserve" font-family="Cochin,Cochin" font-size="56.0" fill="#515151" transform="matrix(1.00, 0.00, -0.00, -1.00, 843.3, 716.0)">e</text><text xml:space="preserve" font-family="Cochin,Cochin" font-size="56.0" fill="#515151" transform="matrix(1.00, 0.00, -0.00, -1.00, 868.2, 716.0)">n</text><text xml:space="preserve" font-family="Cochin,Cochin" font-size="56.0" fill="#515151" transform="matrix(1.00, 0.00, -0.00, -1.00, 898.2, 716.0)">v</text><text xml:space="preserve" font-family="Cochin,Cochin" font-size="56.0" fill="#515151" transform="matrix(1.00, 0.00, -0.00, -1.00, 926.2, 716.0)">i</text><text xml:space="preserve" font-family="Cochin,Cochin" font-size="56.0" fill="#515151" transform="matrix(1.00, 0.00, -0.00, -1.00, 940.8, 716.0)">r</text><text xml:space="preserve" font-family="Cochin,Cochin" font-size="56.0" fill="#515151" transform="matrix(1.00, 0.00, -0.00, -1.00, 962.5, 716.0)">o</text><text xml:space="preserve" font-family="Cochin,Cochin" font-size="56.0" fill="#515151" transform="matrix(1.00, 0.00, -0.00, -1.00, 990.5, 716.0)">n</text><text xml:space="preserve" font-family="Cochin,Cochin" font-size="56.0" fill="#515151" transform="matrix(1.00, 0.00, -0.00, -1.00, 1020.6, 716.0)">m</text><text xml:space="preserve" font-family="Cochin,Cochin" font-size="56.0" fill="#515151" transform="matrix(1.00, 0.00, -0.00, -1.00, 1064.2, 716.0)">e</text><text xml:space="preserve" font-family="Cochin,Cochin" font-size="56.0" fill="#515151" transform="matrix(1.00, 0.00, -0.00, -1.00, 1089.0, 716.0)">n</text><text xml:space="preserve" font-family="Cochin,Cochin" font-size="56.0" fill="#515151" transform="matrix(1.00, 0.00, -0.00, -1.00, 1119.1, 716.0)">t</text><text xml:space="preserve" font-family="Cochin,Cochin" font-size="56.0" fill="#515151" transform="matrix(1.00, 0.00, -0.00, -1.00, 1136.8, 716.0)"> </text><text xml:space="preserve" font-family="Cochin,Cochin" font-size="56.0" fill="#515151" transform="matrix(1.00, 0.00, -0.00, -1.00, 1150.8, 716.0)">(</text><text xml:space="preserve" font-family="Cochin,Cochin" font-size="42.0" fill="#515050" transform="matrix(1.00, 0.00, -0.00, -1.00, 174.0, 595.4)">•</text><text xml:space="preserve" font-family="Cochin,Cochin" font-size="56.0" fill="#515151" transform="matrix(1.00, 0.00, -0.00, -1.00, 224.0, 591.4)">S</text><text xml:space="preserve" font-family="Cochin,Cochin" font-size="56.0" fill="#515151" transform="matrix(1.00, 0.00, -0.00, -1.00, 257.2, 591.4)">o</text><text xml:space="preserve" font-family="Cochin,Cochin" font-size="56.0" fill="#515151" transform="matrix(1.00, 0.00, -0.00, -1.00, 285.2, 591.4)">l</text><text xml:space="preserve" font-family="Cochin,Cochin" font-size="56.0" fill="#515151" transform="matrix(1.00, 0.00, -0.00, -1.00, 299.7, 591.4)">u</text><text xml:space="preserve" font-family="Cochin,Cochin" font-size="56.0" fill="#515151" transform="matrix(1.00, 0.00, -0.00, -1.00, 329.8, 591.4)">t</text><text xml:space="preserve" font-family="Cochin,Cochin" font-size="56.0" fill="#515151" transform="matrix(1.00, 0.00, -0.00, -1.00, 347.4, 591.4)">i</text><text xml:space="preserve" font-family="Cochin,Cochin" font-size="56.0" fill="#515151" transform="matrix(1.00, 0.00, -0.00, -1.00, 361.9, 591.4)">o</text><text xml:space="preserve" font-family="Cochin,Cochin" font-size="56.0" fill="#515151" transform="matrix(1.00, 0.00, -0.00, -1.00, 389.9, 591.4)">n</text><text xml:space="preserve" font-family="Cochin,Cochin" font-size="56.0" fill="#515151" transform="matrix(1.00, 0.00, -0.00, -1.00, 420.0, 591.4)"> </text><text xml:space="preserve" font-family="Cochin,Cochin" font-size="56.0" fill="#515151" transform="matrix(1.00, 0.00, -0.00, -1.00, 434.0, 591.4)">1</text><text xml:space="preserve" font-family="Cochin,Cochin" font-size="56.0" fill="#515151" transform="matrix(1.00, 0.00, -0.00, -1.00, 462.0, 591.4)">:</text><text xml:space="preserve" font-family="Cochin,Cochin" font-size="56.0" fill="#515151" transform="matrix(1.00, 0.00, -0.00, -1.00, 476.0, 591.4)"> </text><text xml:space="preserve" font-family="Cochin,Cochin" font-size="56.0" fill="#515151" transform="matrix(1.00, 0.00, -0.00, -1.00, 490.0, 591.4)">V</text><text xml:space="preserve" font-family="Cochin,Cochin" font-size="56.0" fill="#515151" transform="matrix(1.00, 0.00, -0.00, -1.00, 527.4, 591.4)">i</text><text xml:space="preserve" font-family="Cochin,Cochin" font-size="56.0" fill="#515151" transform="matrix(1.00, 0.00, -0.00, -1.00, 541.9, 591.4)">r</text><text xml:space="preserve" font-family="Cochin,Cochin" font-size="56.0" fill="#515151" transform="matrix(1.00, 0.00, -0.00, -1.00, 563.6, 591.4)">t</text><text xml:space="preserve" font-family="Cochin,Cochin" font-size="56.0" fill="#515151" transform="matrix(1.00, 0.00, -0.00, -1.00, 581.3, 591.4)">u</text><text xml:space="preserve" font-family="Cochin,Cochin" font-size="56.0" fill="#515151" transform="matrix(1.00, 0.00, -0.00, -1.00, 611.4, 591.4)">a</text><text xml:space="preserve" font-family="Cochin,Cochin" font-size="56.0" fill="#515151" transform="matrix(1.00, 0.00, -0.00, -1.00, 637.3, 591.4)">l</text><text xml:space="preserve" font-family="Cochin,Cochin" font-size="56.0" fill="#515151" transform="matrix(1.00, 0.00, -0.00, -1.00, 651.8, 591.4)">B</text><text xml:space="preserve" font-family="Cochin,Cochin" font-size="56.0" fill="#515151" transform="matrix(1.00, 0.00, -0.00, -1.00, 690.1, 591.4)">o</text><text xml:space="preserve" font-family="Cochin,Cochin" font-size="56.0" fill="#515151" transform="matrix(1.00, 0.00, -0.00, -1.00, 718.1, 591.4)">x</text><text xml:space="preserve" font-family="Cochin,Cochin" font-size="56.0" fill="#515151" transform="matrix(1.00, 0.00, -0.00, -1.00, 747.2, 591.4)"> </text><text xml:space="preserve" font-family="Cochin,Cochin" font-size="56.0" fill="#515151" transform="matrix(1.00, 0.00, -0.00, -1.00, 761.2, 591.4)">-</text><text xml:space="preserve" font-family="Cochin,Cochin" font-size="56.0" fill="#515151" transform="matrix(1.00, 0.00, -0.00, -1.00, 779.9, 591.4)"> </text><text xml:space="preserve" font-family="Cochin,Cochin" font-size="56.0" fill="#515151" transform="matrix(1.00, 0.00, -0.00, -1.00, 793.9, 591.4)">h</text><text xml:space="preserve" font-family="Cochin,Cochin" font-size="56.0" fill="#515151" transform="matrix(1.00, 0.00, -0.00, -1.00, 823.9, 591.4)">e</text><text xml:space="preserve" font-family="Cochin,Cochin" font-size="56.0" fill="#515151" transform="matrix(1.00, 0.00, -0.00, -1.00, 848.8, 591.4)">a</text><text xml:space="preserve" font-family="Cochin,Cochin" font-size="56.0" fill="#515151" transform="matrix(1.00, 0.00, -0.00, -1.00, 874.7, 591.4)">v</text><text xml:space="preserve" font-family="Cochin,Cochin" font-size="56.0" fill="#515151" transform="matrix(1.00, 0.00, -0.00, -1.00, 902.7, 591.4)">y</text><text xml:space="preserve" font-family="Cochin,Cochin" font-size="56.0" fill="#515151" transform="matrix(1.00, 0.00, -0.00, -1.00, 930.7, 591.4)">w</text><text xml:space="preserve" font-family="Cochin,Cochin" font-size="56.0" fill="#515151" transform="matrix(1.00, 0.00, -0.00, -1.00, 972.2, 591.4)">e</text><text xml:space="preserve" font-family="Cochin,Cochin" font-size="56.0" fill="#515151" transform="matrix(1.00, 0.00, -0.00, -1.00, 997.1, 591.4)">i</text><text xml:space="preserve" font-family="Cochin,Cochin" font-size="56.0" fill="#515151" transform="matrix(1.00, 0.00, -0.00, -1.00, 1011.6, 591.4)">g</text><text xml:space="preserve" font-family="Cochin,Cochin" font-size="56.0" fill="#515151" transform="matrix(1.00, 0.00, -0.00, -1.00, 1039.6, 591.4)">h</text><text xml:space="preserve" font-family="Cochin,Cochin" font-size="56.0" fill="#515151" transform="matrix(1.00, 0.00, -0.00, -1.00, 1069.7, 591.4)">t</text><text xml:space="preserve" font-family="Cochin,Cochin" font-size="56.0" fill="#515151" transform="matrix(1.00, 0.00, -0.00, -1.00, 1087.3, 591.4)">,</text><text xml:space="preserve" font-family="Cochin,Cochin" font-size="56.0" fill="#515151" transform="matrix(1.00, 0.00, -0.00, -1.00, 1101.3, 591.4)"> </text><text xml:space="preserve" font-family="Cochin,Cochin" font-size="56.0" fill="#515151" transform="matrix(1.00, 0.00, -0.00, -1.00, 1115.3, 591.4)">b</text><text xml:space="preserve" font-family="Cochin,Cochin" font-size="56.0" fill="#515151" transform="matrix(1.00, 0.00, -0.00, -1.00, 1145.4, 591.4)">u</text><text xml:space="preserve" font-family="Cochin,Cochin" font-size="56.0" fill="#515151" transform="matrix(1.00, 0.00, -0.00, -1.00, 1175.4, 591.4)">t</text><text xml:space="preserve" font-family="Cochin,Cochin" font-size="56.0" fill="#515151" transform="matrix(1.00, 0.00, -0.00, -1.00, 1193.1, 591.4)"> </text><text xml:space="preserve" font-family="Cochin,Cochin" font-size="56.0" fill="#515151" transform="matrix(1.00, 0.00, -0.00, -1.00, 1207.1, 591.4)">s</text><text xml:space="preserve" font-family="Cochin,Cochin" font-size="56.0" fill="#515151" transform="matrix(1.00, 0.00, -0.00, -1.00, 1228.9, 591.4)">i</text><text xml:space="preserve" font-family="Cochin,Cochin" font-size="56.0" fill="#515151" transform="matrix(1.00, 0.00, -0.00, -1.00, 1243.4, 591.4)">m</text><text xml:space="preserve" font-family="Cochin,Cochin" font-size="56.0" fill="#515151" transform="matrix(1.00, 0.00, -0.00, -1.00, 1286.9, 591.4)">p</text><text xml:space="preserve" font-family="Cochin,Cochin" font-size="56.0" fill="#515151" transform="matrix(1.00, 0.00, -0.00, -1.00, 1317.0, 591.4)">l</text><text xml:space="preserve" font-family="Cochin,Cochin" font-size="56.0" fill="#515151" transform="matrix(1.00, 0.00, -0.00, -1.00, 1331.5, 591.4)">e</text><text xml:space="preserve" font-family="Cochin,Cochin" font-size="56.0" fill="#515151" transform="matrix(1.00, 0.00, -0.00, -1.00, 1356.4, 591.4)">r</text><text xml:space="preserve" font-family="Cochin,Cochin" font-size="42.0" fill="#515050" transform="matrix(1.00, 0.00, -0.00, -1.00, 174.0, 475.4)">•</text><text xml:space="preserve" font-family="Cochin,Cochin" font-size="56.0" fill="#515151" transform="matrix(1.00, 0.00, -0.00, -1.00, 224.0, 471.4)">S</text><text xml:space="preserve" font-family="Cochin,Cochin" font-size="56.0" fill="#515151" transform="matrix(1.00, 0.00, -0.00, -1.00, 257.2, 471.4)">o</text><text xml:space="preserve" font-family="Cochin,Cochin" font-size="56.0" fill="#515151" transform="matrix(1.00, 0.00, -0.00, -1.00, 285.2, 471.4)">l</text><text xml:space="preserve" font-family="Cochin,Cochin" font-size="56.0" fill="#515151" transform="matrix(1.00, 0.00, -0.00, -1.00, 299.7, 471.4)">u</text><text xml:space="preserve" font-family="Cochin,Cochin" font-size="56.0" fill="#515151" transform="matrix(1.00, 0.00, -0.00, -1.00, 329.8, 471.4)">t</text><text xml:space="preserve" font-family="Cochin,Cochin" font-size="56.0" fill="#515151" transform="matrix(1.00, 0.00, -0.00, -1.00, 347.4, 471.4)">i</text><text xml:space="preserve" font-family="Cochin,Cochin" font-size="56.0" fill="#515151" transform="matrix(1.00, 0.00, -0.00, -1.00, 361.9, 471.4)">o</text><text xml:space="preserve" font-family="Cochin,Cochin" font-size="56.0" fill="#515151" transform="matrix(1.00, 0.00, -0.00, -1.00, 389.9, 471.4)">n</text><text xml:space="preserve" font-family="Cochin,Cochin" font-size="56.0" fill="#515151" transform="matrix(1.00, 0.00, -0.00, -1.00, 420.0, 471.4)"> </text><text xml:space="preserve" font-family="Cochin,Cochin" font-size="56.0" fill="#515151" transform="matrix(1.00, 0.00, -0.00, -1.00, 434.0, 471.4)">2</text><text xml:space="preserve" font-family="Cochin,Cochin" font-size="56.0" fill="#515151" transform="matrix(1.00, 0.00, -0.00, -1.00, 462.0, 471.4)">:</text><text xml:space="preserve" font-family="Cochin,Cochin" font-size="56.0" fill="#515151" transform="matrix(1.00, 0.00, -0.00, -1.00, 476.0, 471.4)"> </text><text xml:space="preserve" font-family="Cochin,Cochin" font-size="56.0" fill="#515151" transform="matrix(1.00, 0.00, -0.00, -1.00, 490.0, 471.4)">D</text><text xml:space="preserve" font-family="Cochin,Cochin" font-size="56.0" fill="#515151" transform="matrix(1.00, 0.00, -0.00, -1.00, 536.6, 471.4)">o</text><text xml:space="preserve" font-family="Cochin,Cochin" font-size="56.0" fill="#515151" transform="matrix(1.00, 0.00, -0.00, -1.00, 564.6, 471.4)">c</text><text xml:space="preserve" font-family="Cochin,Cochin" font-size="56.0" fill="#515151" transform="matrix(1.00, 0.00, -0.00, -1.00, 589.5, 471.4)">k</text><text xml:space="preserve" font-family="Cochin,Cochin" font-size="56.0" fill="#515151" transform="matrix(1.00, 0.00, -0.00, -1.00, 619.6, 471.4)">e</text><text xml:space="preserve" font-family="Cochin,Cochin" font-size="56.0" fill="#515151" transform="matrix(1.00, 0.00, -0.00, -1.00, 644.4, 471.4)">r</text><text xml:space="preserve" font-family="Cochin,Cochin" font-size="56.0" fill="#515151" transform="matrix(1.00, 0.00, -0.00, -1.00, 666.2, 471.4)"> </text><text xml:space="preserve" font-family="Cochin,Cochin" font-size="56.0" fill="#515151" transform="matrix(1.00, 0.00, -0.00, -1.00, 680.2, 471.4)">+</text><text xml:space="preserve" font-family="Cochin,Cochin" font-size="56.0" fill="#515151" transform="matrix(1.00, 0.00, -0.00, -1.00, 708.2, 471.4)"> </text><text xml:space="preserve" font-family="Cochin,Cochin" font-size="56.0" fill="#515151" transform="matrix(1.00, 0.00, -0.00, -1.00, 722.2, 471.4)">V</text><text xml:space="preserve" font-family="Cochin,Cochin" font-size="56.0" fill="#515151" transform="matrix(1.00, 0.00, -0.00, -1.00, 758.6, 471.4)">a</text><text xml:space="preserve" font-family="Cochin,Cochin" font-size="56.0" fill="#515151" transform="matrix(1.00, 0.00, -0.00, -1.00, 784.5, 471.4)">g</text><text xml:space="preserve" font-family="Cochin,Cochin" font-size="56.0" fill="#515151" transform="matrix(1.00, 0.00, -0.00, -1.00, 812.5, 471.4)">r</text><text xml:space="preserve" font-family="Cochin,Cochin" font-size="56.0" fill="#515151" transform="matrix(1.00, 0.00, -0.00, -1.00, 834.3, 471.4)">a</text><text xml:space="preserve" font-family="Cochin,Cochin" font-size="56.0" fill="#515151" transform="matrix(1.00, 0.00, -0.00, -1.00, 860.2, 471.4)">n</text><text xml:space="preserve" font-family="Cochin,Cochin" font-size="56.0" fill="#515151" transform="matrix(1.00, 0.00, -0.00, -1.00, 890.3, 471.4)">t</text><text xml:space="preserve" font-family="Cochin,Cochin" font-size="56.0" fill="#515151" transform="matrix(1.00, 0.00, -0.00, -1.00, 907.9, 471.4)"> </text><text xml:space="preserve" font-family="Cochin,Cochin" font-size="56.0" fill="#515151" transform="matrix(1.00, 0.00, -0.00, -1.00, 921.9, 471.4)">-</text><text xml:space="preserve" font-family="Cochin,Cochin" font-size="56.0" fill="#515151" transform="matrix(1.00, 0.00, -0.00, -1.00, 940.6, 471.4)"> </text></g></g></g></g></svg>