<?xml version="1.0" encoding="UTF-8" standalone="no"?><svg xmlns="http://www.w3.org/2000/svg" xmlns:xlink="http://www.w3.org/1999/xlink" clip-rule="evenodd" stroke-miterlimit="10" viewBox="0 0 1920 1080"><desc>SVG generated by Keynote</desc><defs></defs><g transform="matrix(1.00, 0.00, -0.00, -1.00, 0.0, 1080.0)"><g><clipPath id="clip0x6180006bff80"><path d="M 0.0 1080.0 L 1920.0 1080.0 L 1920.0 0.0 L 0.0 0.0 Z M 0.0 1080.0 "></path></clipPath><g clip-path="url(#clip0x6180006bff80)"><image xlink:href="../../5D8AB9B9-3D8E-4B06-B542-BC95DAAA4419/assets/18F8971E445B25125F850F9CF2CFFF78.jpeg" width="3840.00" height="2160.00" transform="matrix(0.50, 0.00, -0.00, -0.50, 0.0, 1080.0)"></image></g></g><g opacity="0.90"><g><clipPath id="clip0x6180006bf980"><path d="M 188.0 318.0 L 1733.0 318.0 L 1733.0 373.0 L 188.0 373.0 Z M 188.0 318.0 "></path></clipPath><g clip-path="url(#clip0x6180006bf980)"><text xml:space="preserve" font-family="Cochin-Italic,Cochin" font-style="italic" font-size="42.0" fill="#515151" transform="matrix(1.00, 0.00, -0.00, -1.00, 854.4, 331.8)">–</text><text xml:space="preserve" font-family="Cochin-Italic,Cochin" font-style="italic" font-size="42.0" fill="#515151" transform="matrix(1.00, 0.00, -0.00, -1.00, 875.4, 331.8)"> </text><text xml:space="preserve" font-family="Cochin-Italic,Cochin" font-style="italic" font-size="42.0" fill="#515151" transform="matrix(1.00, 0.00, -0.00, -1.00, 884.7, 331.8)">A</text><text xml:space="preserve" font-family="Cochin-Italic,Cochin" font-style="italic" font-size="42.0" fill="#515151" transform="matrix(1.00, 0.00, -0.00, -1.00, 909.6, 331.8)">n</text><text xml:space="preserve" font-family="Cochin-Italic,Cochin" font-style="italic" font-size="42.0" fill="#515151" transform="matrix(1.00, 0.00, -0.00, -1.00, 929.8, 331.8)">o</text><text xml:space="preserve" font-family="Cochin-Italic,Cochin" font-style="italic" font-size="42.0" fill="#515151" transform="matrix(1.00, 0.00, -0.00, -1.00, 946.1, 331.8)">n</text><text xml:space="preserve" font-family="Cochin-Italic,Cochin" font-style="italic" font-size="42.0" fill="#515151" transform="matrix(1.00, 0.00, -0.00, -1.00, 966.3, 331.8)">y</text><text xml:space="preserve" font-family="Cochin-Italic,Cochin" font-style="italic" font-size="42.0" fill="#515151" transform="matrix(1.00, 0.00, -0.00, -1.00, 985.0, 331.8)">m</text><text xml:space="preserve" font-family="Cochin-Italic,Cochin" font-style="italic" font-size="42.0" fill="#515151" transform="matrix(1.00, 0.00, -0.00, -1.00, 1015.3, 331.8)">o</text><text xml:space="preserve" font-family="Cochin-Italic,Cochin" font-style="italic" font-size="42.0" fill="#515151" transform="matrix(1.00, 0.00, -0.00, -1.00, 1031.6, 331.8)">u</text><text xml:space="preserve" font-family="Cochin-Italic,Cochin" font-style="italic" font-size="42.0" fill="#515151" transform="matrix(1.00, 0.00, -0.00, -1.00, 1051.8, 331.8)">s</text><text xml:space="preserve" font-family="Cochin-Italic,Cochin" font-style="italic" font-size="42.0" fill="#515151" transform="matrix(1.00, 0.00, -0.00, -1.00, 1066.6, 331.8)"> </text></g></g></g><g opacity="0.90"><g><clipPath id="clip0x6180006bf260"><path d="M 188.0 533.0 L 1733.0 533.0 L 1733.0 605.0 L 188.0 605.0 Z M 188.0 533.0 "></path></clipPath><g clip-path="url(#clip0x6180006bf260)"><text xml:space="preserve" font-family="Cochin,Cochin" font-size="56.0" fill="#515050" transform="matrix(1.00, 0.00, -0.00, -1.00, 616.0, 551.0)">“</text><text xml:space="preserve" font-family="Cochin,Cochin" font-size="56.0" fill="#515050" transform="matrix(1.00, 0.00, -0.00, -1.00, 637.7, 551.0)">L</text><text xml:space="preserve" font-family="Cochin,Cochin" font-size="56.0" fill="#515050" transform="matrix(1.00, 0.00, -0.00, -1.00, 674.0, 551.0)">o</text><text xml:space="preserve" font-family="Cochin,Cochin" font-size="56.0" fill="#515050" transform="matrix(1.00, 0.00, -0.00, -1.00, 702.0, 551.0)">n</text><text xml:space="preserve" font-family="Cochin,Cochin" font-size="56.0" fill="#515050" transform="matrix(1.00, 0.00, -0.00, -1.00, 732.1, 551.0)">g</text><text xml:space="preserve" font-family="Cochin,Cochin" font-size="56.0" fill="#515050" transform="matrix(1.00, 0.00, -0.00, -1.00, 760.1, 551.0)"> </text><text xml:space="preserve" font-family="Cochin,Cochin" font-size="56.0" fill="#515050" transform="matrix(1.00, 0.00, -0.00, -1.00, 774.1, 551.0)">l</text><text xml:space="preserve" font-family="Cochin,Cochin" font-size="56.0" fill="#515050" transform="matrix(1.00, 0.00, -0.00, -1.00, 788.6, 551.0)">i</text><text xml:space="preserve" font-family="Cochin,Cochin" font-size="56.0" fill="#515050" transform="matrix(1.00, 0.00, -0.00, -1.00, 803.1, 551.0)">v</text><text xml:space="preserve" font-family="Cochin,Cochin" font-size="56.0" fill="#515050" transform="matrix(1.00, 0.00, -0.00, -1.00, 831.1, 551.0)">e</text><text xml:space="preserve" font-family="Cochin,Cochin" font-size="56.0" fill="#515050" transform="matrix(1.00, 0.00, -0.00, -1.00, 856.0, 551.0)"> </text><text xml:space="preserve" font-family="Cochin,Cochin" font-size="56.0" fill="#515050" transform="matrix(1.00, 0.00, -0.00, -1.00, 870.0, 551.0)">S</text><text xml:space="preserve" font-family="Cochin,Cochin" font-size="56.0" fill="#515050" transform="matrix(1.00, 0.00, -0.00, -1.00, 903.2, 551.0)">V</text><text xml:space="preserve" font-family="Cochin,Cochin" font-size="56.0" fill="#515050" transform="matrix(1.00, 0.00, -0.00, -1.00, 942.6, 551.0)">N</text><text xml:space="preserve" font-family="Cochin,Cochin" font-size="56.0" fill="#515050" transform="matrix(1.00, 0.00, -0.00, -1.00, 988.2, 551.0)">!</text><text xml:space="preserve" font-family="Cochin,Cochin" font-size="56.0" fill="#515050" transform="matrix(1.00, 0.00, -0.00, -1.00, 1010.0, 551.0)"> </text><text xml:space="preserve" font-family="Cochin,Cochin" font-size="56.0" fill="#515050" transform="matrix(1.00, 0.00, -0.00, -1.00, 1024.0, 551.0)">H</text><text xml:space="preserve" font-family="Cochin,Cochin" font-size="56.0" fill="#515050" transform="matrix(1.00, 0.00, -0.00, -1.00, 1070.7, 551.0)">o</text><text xml:space="preserve" font-family="Cochin,Cochin" font-size="56.0" fill="#515050" transform="matrix(1.00, 0.00, -0.00, -1.00, 1098.7, 551.0)">p</text><text xml:space="preserve" font-family="Cochin,Cochin" font-size="56.0" fill="#515050" transform="matrix(1.00, 0.00, -0.00, -1.00, 1128.8, 551.0)">e</text><text xml:space="preserve" font-family="Cochin,Cochin" font-size="56.0" fill="#515050" transform="matrix(1.00, 0.00, -0.00, -1.00, 1153.6, 551.0)">f</text><text xml:space="preserve" font-family="Cochin,Cochin" font-size="56.0" fill="#515050" transform="matrix(1.00, 0.00, -0.00, -1.00, 1171.3, 551.0)">u</text><text xml:space="preserve" font-family="Cochin,Cochin" font-size="56.0" fill="#515050" transform="matrix(1.00, 0.00, -0.00, -1.00, 1201.3, 551.0)">l</text><text xml:space="preserve" font-family="Cochin,Cochin" font-size="56.0" fill="#515050" transform="matrix(1.00, 0.00, -0.00, -1.00, 1215.8, 551.0)">l</text><text xml:space="preserve" font-family="Cochin,Cochin" font-size="56.0" fill="#515050" transform="matrix(1.00, 0.00, -0.00, -1.00, 1230.3, 551.0)">y</text><text xml:space="preserve" font-family="Cochin,Cochin" font-size="56.0" fill="#515050" transform="matrix(1.00, 0.00, -0.00, -1.00, 1255.3, 551.0)">.</text><text xml:space="preserve" font-family="Cochin,Cochin" font-size="56.0" fill="#515050" transform="matrix(1.00, 0.00, -0.00, -1.00, 1269.3, 551.0)">.</text></g></g></g><g opacity="0.90"><g><clipPath id="clip0x6180008a41a0"><path d="M 940.0 14.0 L 978.0 14.0 L 978.0 55.0 L 940.0 55.0 Z M 940.0 14.0 "></path></clipPath><g clip-path="url(#clip0x6180008a41a0)"><text xml:space="preserve" font-family="Cochin,Cochin" font-size="28.0" fill="#515050" transform="matrix(1.00, 0.00, -0.00, -1.00, 945.0, 26.0)">1</text><text xml:space="preserve" font-family="Cochin,Cochin" font-size="28.0" fill="#515050" transform="matrix(1.00, 0.00, -0.00, -1.00, 959.0, 26.0)">6</text></g></g></g></g></svg>