<?xml version="1.0" encoding="UTF-8" standalone="no"?><svg xmlns="http://www.w3.org/2000/svg" xmlns:xlink="http://www.w3.org/1999/xlink" clip-rule="evenodd" stroke-miterlimit="10" viewBox="0 0 1920 1080"><desc>SVG generated by Keynote</desc><defs></defs><g transform="matrix(1.00, 0.00, -0.00, -1.00, 0.0, 1080.0)"><g><clipPath id="clip0x6100008a3780"><path d="M 0.0 1080.0 L 1920.0 1080.0 L 1920.0 0.0 L 0.0 0.0 Z M 0.0 1080.0 "></path></clipPath><g clip-path="url(#clip0x6100008a3780)"><image xlink:href="../../5D8AB9B9-3D8E-4B06-B542-BC95DAAA4419/assets/18F8971E445B25125F850F9CF2CFFF78.jpeg" width="3840.00" height="2160.00" transform="matrix(0.50, 0.00, -0.00, -0.50, 0.0, 1080.0)"></image></g></g><g opacity="0.90"><image xlink:href="../../D2D013E4-E4ED-4F85-A740-7568E8104285/assets/0FCACD7A7C1BACC6EE38CF2BDD41756B.png" width="552.00" height="79.00" transform="matrix(1.00, 0.00, -0.00, -1.00, 697.0, 951.0)"></image><g><clipPath id="clip0x6000008b16a0"><path d="M 120.0 810.0 L 1800.0 810.0 L 1800.0 1020.0 L 120.0 1020.0 Z M 120.0 810.0 "></path></clipPath><g clip-path="url(#clip0x6000008b16a0)"><text xml:space="preserve" font-family="Cochin,Cochin" font-size="104.0" fill="#515151" transform="matrix(1.00, 0.00, -0.00, -1.00, 693.5, 881.0)">S</text><text xml:space="preserve" font-family="Cochin,Cochin" font-size="104.0" fill="#515151" transform="matrix(1.00, 0.00, -0.00, -1.00, 755.2, 881.0)">V</text><text xml:space="preserve" font-family="Cochin,Cochin" font-size="104.0" fill="#515151" transform="matrix(1.00, 0.00, -0.00, -1.00, 828.4, 881.0)">N</text><text xml:space="preserve" font-family="Cochin,Cochin" font-size="104.0" fill="#515151" transform="matrix(1.00, 0.00, -0.00, -1.00, 913.2, 881.0)"> </text><text xml:space="preserve" font-family="Cochin,Cochin" font-size="104.0" fill="#515151" transform="matrix(1.00, 0.00, -0.00, -1.00, 939.2, 881.0)">v</text><text xml:space="preserve" font-family="Cochin,Cochin" font-size="104.0" fill="#515151" transform="matrix(1.00, 0.00, -0.00, -1.00, 985.4, 881.0)">.</text><text xml:space="preserve" font-family="Cochin,Cochin" font-size="104.0" fill="#515151" transform="matrix(1.00, 0.00, -0.00, -1.00, 1011.4, 881.0)">s</text><text xml:space="preserve" font-family="Cochin,Cochin" font-size="104.0" fill="#515151" transform="matrix(1.00, 0.00, -0.00, -1.00, 1051.9, 881.0)">.</text><text xml:space="preserve" font-family="Cochin,Cochin" font-size="104.0" fill="#515151" transform="matrix(1.00, 0.00, -0.00, -1.00, 1077.9, 881.0)"> </text><text xml:space="preserve" font-family="Cochin,Cochin" font-size="104.0" fill="#515151" transform="matrix(1.00, 0.00, -0.00, -1.00, 1103.9, 881.0)">G</text><text xml:space="preserve" font-family="Cochin,Cochin" font-size="104.0" fill="#515151" transform="matrix(1.00, 0.00, -0.00, -1.00, 1184.8, 881.0)">i</text><text xml:space="preserve" font-family="Cochin,Cochin" font-size="104.0" fill="#515151" transform="matrix(1.00, 0.00, -0.00, -1.00, 1211.7, 881.0)">t</text></g></g></g><g opacity="0.90"><g><clipPath id="clip0x6000008b2420"><path d="M 120.0 140.0 L 1800.0 140.0 L 1800.0 770.0 L 120.0 770.0 Z M 120.0 140.0 "></path></clipPath><g clip-path="url(#clip0x6000008b2420)"><text xml:space="preserve" font-family="Cochin,Cochin" font-size="42.0" fill="#515050" transform="matrix(1.00, 0.00, -0.00, -1.00, 124.0, 720.0)">•</text><text xml:space="preserve" font-family="Cochin,Cochin" font-size="56.0" fill="#515151" transform="matrix(1.00, 0.00, -0.00, -1.00, 174.0, 716.0)">N</text><text xml:space="preserve" font-family="Cochin,Cochin" font-size="56.0" fill="#515151" transform="matrix(1.00, 0.00, -0.00, -1.00, 219.6, 716.0)">e</text><text xml:space="preserve" font-family="Cochin,Cochin" font-size="56.0" fill="#515151" transform="matrix(1.00, 0.00, -0.00, -1.00, 244.5, 716.0)">t</text><text xml:space="preserve" font-family="Cochin,Cochin" font-size="56.0" fill="#515151" transform="matrix(1.00, 0.00, -0.00, -1.00, 262.1, 716.0)">w</text><text xml:space="preserve" font-family="Cochin,Cochin" font-size="56.0" fill="#515151" transform="matrix(1.00, 0.00, -0.00, -1.00, 303.6, 716.0)">o</text><text xml:space="preserve" font-family="Cochin,Cochin" font-size="56.0" fill="#515151" transform="matrix(1.00, 0.00, -0.00, -1.00, 331.6, 716.0)">r</text><text xml:space="preserve" font-family="Cochin,Cochin" font-size="56.0" fill="#515151" transform="matrix(1.00, 0.00, -0.00, -1.00, 353.4, 716.0)">k</text><text xml:space="preserve" font-family="Cochin,Cochin" font-size="56.0" fill="#515151" transform="matrix(1.00, 0.00, -0.00, -1.00, 383.5, 716.0)"> </text><text xml:space="preserve" font-family="Cochin,Cochin" font-size="56.0" fill="#515151" transform="matrix(1.00, 0.00, -0.00, -1.00, 397.5, 716.0)">D</text><text xml:space="preserve" font-family="Cochin,Cochin" font-size="56.0" fill="#515151" transform="matrix(1.00, 0.00, -0.00, -1.00, 444.1, 716.0)">e</text><text xml:space="preserve" font-family="Cochin,Cochin" font-size="56.0" fill="#515151" transform="matrix(1.00, 0.00, -0.00, -1.00, 469.0, 716.0)">p</text><text xml:space="preserve" font-family="Cochin,Cochin" font-size="56.0" fill="#515151" transform="matrix(1.00, 0.00, -0.00, -1.00, 499.1, 716.0)">e</text><text xml:space="preserve" font-family="Cochin,Cochin" font-size="56.0" fill="#515151" transform="matrix(1.00, 0.00, -0.00, -1.00, 523.9, 716.0)">n</text><text xml:space="preserve" font-family="Cochin,Cochin" font-size="56.0" fill="#515151" transform="matrix(1.00, 0.00, -0.00, -1.00, 554.0, 716.0)">d</text><text xml:space="preserve" font-family="Cochin,Cochin" font-size="56.0" fill="#515151" transform="matrix(1.00, 0.00, -0.00, -1.00, 584.1, 716.0)">e</text><text xml:space="preserve" font-family="Cochin,Cochin" font-size="56.0" fill="#515151" transform="matrix(1.00, 0.00, -0.00, -1.00, 609.0, 716.0)">n</text><text xml:space="preserve" font-family="Cochin,Cochin" font-size="56.0" fill="#515151" transform="matrix(1.00, 0.00, -0.00, -1.00, 639.0, 716.0)">c</text><text xml:space="preserve" font-family="Cochin,Cochin" font-size="56.0" fill="#515151" transform="matrix(1.00, 0.00, -0.00, -1.00, 663.9, 716.0)">e</text><text xml:space="preserve" font-family="Cochin,Cochin" font-size="42.0" fill="#515050" transform="matrix(1.00, 0.00, -0.00, -1.00, 174.0, 600.0)">•</text><text xml:space="preserve" font-family="Cochin,Cochin" font-size="56.0" fill="#515151" transform="matrix(1.00, 0.00, -0.00, -1.00, 224.0, 596.0)">S</text><text xml:space="preserve" font-family="Cochin,Cochin" font-size="56.0" fill="#515151" transform="matrix(1.00, 0.00, -0.00, -1.00, 257.2, 596.0)">V</text><text xml:space="preserve" font-family="Cochin,Cochin" font-size="56.0" fill="#515151" transform="matrix(1.00, 0.00, -0.00, -1.00, 296.6, 596.0)">N</text><text xml:space="preserve" font-family="Cochin,Cochin" font-size="56.0" fill="#515151" transform="matrix(1.00, 0.00, -0.00, -1.00, 342.3, 596.0)">:</text><text xml:space="preserve" font-family="Cochin,Cochin" font-size="56.0" fill="#515151" transform="matrix(1.00, 0.00, -0.00, -1.00, 356.3, 596.0)"> </text><text xml:space="preserve" font-family="Cochin,Cochin" font-size="56.0" fill="#515151" transform="matrix(1.00, 0.00, -0.00, -1.00, 370.3, 596.0)">A</text><text xml:space="preserve" font-family="Cochin,Cochin" font-size="56.0" fill="#515151" transform="matrix(1.00, 0.00, -0.00, -1.00, 409.7, 596.0)">l</text><text xml:space="preserve" font-family="Cochin,Cochin" font-size="56.0" fill="#515151" transform="matrix(1.00, 0.00, -0.00, -1.00, 424.2, 596.0)">w</text><text xml:space="preserve" font-family="Cochin,Cochin" font-size="56.0" fill="#515151" transform="matrix(1.00, 0.00, -0.00, -1.00, 465.7, 596.0)">a</text><text xml:space="preserve" font-family="Cochin,Cochin" font-size="56.0" fill="#515151" transform="matrix(1.00, 0.00, -0.00, -1.00, 491.6, 596.0)">y</text><text xml:space="preserve" font-family="Cochin,Cochin" font-size="56.0" fill="#515151" transform="matrix(1.00, 0.00, -0.00, -1.00, 519.6, 596.0)">s</text><text xml:space="preserve" font-family="Cochin,Cochin" font-size="56.0" fill="#515151" transform="matrix(1.00, 0.00, -0.00, -1.00, 541.4, 596.0)"> </text><text xml:space="preserve" font-family="Cochin,Cochin" font-size="56.0" fill="#515151" transform="matrix(1.00, 0.00, -0.00, -1.00, 555.4, 596.0)">n</text><text xml:space="preserve" font-family="Cochin,Cochin" font-size="56.0" fill="#515151" transform="matrix(1.00, 0.00, -0.00, -1.00, 585.5, 596.0)">e</text><text xml:space="preserve" font-family="Cochin,Cochin" font-size="56.0" fill="#515151" transform="matrix(1.00, 0.00, -0.00, -1.00, 610.3, 596.0)">e</text><text xml:space="preserve" font-family="Cochin,Cochin" font-size="56.0" fill="#515151" transform="matrix(1.00, 0.00, -0.00, -1.00, 635.2, 596.0)">d</text><text xml:space="preserve" font-family="Cochin,Cochin" font-size="56.0" fill="#515151" transform="matrix(1.00, 0.00, -0.00, -1.00, 665.3, 596.0)"> </text><text xml:space="preserve" font-family="Cochin,Cochin" font-size="56.0" fill="#515151" transform="matrix(1.00, 0.00, -0.00, -1.00, 679.3, 596.0)">t</text><text xml:space="preserve" font-family="Cochin,Cochin" font-size="56.0" fill="#515151" transform="matrix(1.00, 0.00, -0.00, -1.00, 696.9, 596.0)">o</text><text xml:space="preserve" font-family="Cochin,Cochin" font-size="56.0" fill="#515151" transform="matrix(1.00, 0.00, -0.00, -1.00, 724.9, 596.0)"> </text><text xml:space="preserve" font-family="Cochin,Cochin" font-size="56.0" fill="#515151" transform="matrix(1.00, 0.00, -0.00, -1.00, 738.9, 596.0)">b</text><text xml:space="preserve" font-family="Cochin,Cochin" font-size="56.0" fill="#515151" transform="matrix(1.00, 0.00, -0.00, -1.00, 769.0, 596.0)">e</text><text xml:space="preserve" font-family="Cochin,Cochin" font-size="56.0" fill="#515151" transform="matrix(1.00, 0.00, -0.00, -1.00, 793.9, 596.0)"> </text><text xml:space="preserve" font-family="Cochin,Cochin" font-size="56.0" fill="#515151" transform="matrix(1.00, 0.00, -0.00, -1.00, 807.9, 596.0)">o</text><text xml:space="preserve" font-family="Cochin,Cochin" font-size="56.0" fill="#515151" transform="matrix(1.00, 0.00, -0.00, -1.00, 835.9, 596.0)">n</text><text xml:space="preserve" font-family="Cochin,Cochin" font-size="56.0" fill="#515151" transform="matrix(1.00, 0.00, -0.00, -1.00, 865.9, 596.0)">l</text><text xml:space="preserve" font-family="Cochin,Cochin" font-size="56.0" fill="#515151" transform="matrix(1.00, 0.00, -0.00, -1.00, 880.4, 596.0)">i</text><text xml:space="preserve" font-family="Cochin,Cochin" font-size="56.0" fill="#515151" transform="matrix(1.00, 0.00, -0.00, -1.00, 894.9, 596.0)">n</text><text xml:space="preserve" font-family="Cochin,Cochin" font-size="56.0" fill="#515151" transform="matrix(1.00, 0.00, -0.00, -1.00, 925.0, 596.0)">e</text><text xml:space="preserve" font-family="Cochin,Cochin" font-size="56.0" fill="#515151" transform="matrix(1.00, 0.00, -0.00, -1.00, 949.9, 596.0)">,</text><text xml:space="preserve" font-family="Cochin,Cochin" font-size="56.0" fill="#515151" transform="matrix(1.00, 0.00, -0.00, -1.00, 963.9, 596.0)"> </text><text xml:space="preserve" font-family="Cochin,Cochin" font-size="56.0" fill="#515151" transform="matrix(1.00, 0.00, -0.00, -1.00, 977.9, 596.0)">w</text><text xml:space="preserve" font-family="Cochin,Cochin" font-size="56.0" fill="#515151" transform="matrix(1.00, 0.00, -0.00, -1.00, 1019.4, 596.0)">h</text><text xml:space="preserve" font-family="Cochin,Cochin" font-size="56.0" fill="#515151" transform="matrix(1.00, 0.00, -0.00, -1.00, 1049.4, 596.0)">i</text><text xml:space="preserve" font-family="Cochin,Cochin" font-size="56.0" fill="#515151" transform="matrix(1.00, 0.00, -0.00, -1.00, 1063.9, 596.0)">l</text><text xml:space="preserve" font-family="Cochin,Cochin" font-size="56.0" fill="#515151" transform="matrix(1.00, 0.00, -0.00, -1.00, 1078.4, 596.0)">e</text><text xml:space="preserve" font-family="Cochin,Cochin" font-size="56.0" fill="#515151" transform="matrix(1.00, 0.00, -0.00, -1.00, 1103.3, 596.0)"> </text><text xml:space="preserve" font-family="Cochin,Cochin" font-size="56.0" fill="#515151" transform="matrix(1.00, 0.00, -0.00, -1.00, 1117.3, 596.0)">t</text><text xml:space="preserve" font-family="Cochin,Cochin" font-size="56.0" fill="#515151" transform="matrix(1.00, 0.00, -0.00, -1.00, 1135.0, 596.0)">h</text><text xml:space="preserve" font-family="Cochin,Cochin" font-size="56.0" fill="#515151" transform="matrix(1.00, 0.00, -0.00, -1.00, 1165.0, 596.0)">e</text><text xml:space="preserve" font-family="Cochin,Cochin" font-size="56.0" fill="#515151" transform="matrix(1.00, 0.00, -0.00, -1.00, 1189.9, 596.0)"> </text><text xml:space="preserve" font-family="Cochin,Cochin" font-size="56.0" fill="#515151" transform="matrix(1.00, 0.00, -0.00, -1.00, 1203.9, 596.0)">l</text><text xml:space="preserve" font-family="Cochin,Cochin" font-size="56.0" fill="#515151" transform="matrix(1.00, 0.00, -0.00, -1.00, 1218.4, 596.0)">i</text><text xml:space="preserve" font-family="Cochin,Cochin" font-size="56.0" fill="#515151" transform="matrix(1.00, 0.00, -0.00, -1.00, 1232.9, 596.0)">n</text><text xml:space="preserve" font-family="Cochin,Cochin" font-size="56.0" fill="#515151" transform="matrix(1.00, 0.00, -0.00, -1.00, 1263.0, 596.0)">e</text><text xml:space="preserve" font-family="Cochin,Cochin" font-size="56.0" fill="#515151" transform="matrix(1.00, 0.00, -0.00, -1.00, 1287.8, 596.0)"> </text><text xml:space="preserve" font-family="Cochin,Cochin" font-size="56.0" fill="#515151" transform="matrix(1.00, 0.00, -0.00, -1.00, 1301.8, 596.0)">i</text><text xml:space="preserve" font-family="Cochin,Cochin" font-size="56.0" fill="#515151" transform="matrix(1.00, 0.00, -0.00, -1.00, 1316.3, 596.0)">s</text><text xml:space="preserve" font-family="Cochin,Cochin" font-size="56.0" fill="#515151" transform="matrix(1.00, 0.00, -0.00, -1.00, 1338.1, 596.0)"> </text><text xml:space="preserve" font-family="Cochin,Cochin" font-size="56.0" fill="#515151" transform="matrix(1.00, 0.00, -0.00, -1.00, 1352.1, 596.0)">n</text><text xml:space="preserve" font-family="Cochin,Cochin" font-size="56.0" fill="#515151" transform="matrix(1.00, 0.00, -0.00, -1.00, 1382.2, 596.0)">o</text><text xml:space="preserve" font-family="Cochin,Cochin" font-size="56.0" fill="#515151" transform="matrix(1.00, 0.00, -0.00, -1.00, 1410.2, 596.0)">t</text><text xml:space="preserve" font-family="Cochin,Cochin" font-size="56.0" fill="#515151" transform="matrix(1.00, 0.00, -0.00, -1.00, 1427.8, 596.0)"> </text><text xml:space="preserve" font-family="Cochin,Cochin" font-size="56.0" fill="#515151" transform="matrix(1.00, 0.00, -0.00, -1.00, 1441.8, 596.0)">a</text><text xml:space="preserve" font-family="Cochin,Cochin" font-size="56.0" fill="#515151" transform="matrix(1.00, 0.00, -0.00, -1.00, 1467.8, 596.0)">l</text><text xml:space="preserve" font-family="Cochin,Cochin" font-size="56.0" fill="#515151" transform="matrix(1.00, 0.00, -0.00, -1.00, 1482.3, 596.0)">w</text><text xml:space="preserve" font-family="Cochin,Cochin" font-size="56.0" fill="#515151" transform="matrix(1.00, 0.00, -0.00, -1.00, 1523.8, 596.0)">a</text><text xml:space="preserve" font-family="Cochin,Cochin" font-size="56.0" fill="#515151" transform="matrix(1.00, 0.00, -0.00, -1.00, 1549.7, 596.0)">y</text><text xml:space="preserve" font-family="Cochin,Cochin" font-size="56.0" fill="#515151" transform="matrix(1.00, 0.00, -0.00, -1.00, 1577.7, 596.0)">s</text><text xml:space="preserve" font-family="Cochin,Cochin" font-size="56.0" fill="#515151" transform="matrix(1.00, 0.00, -0.00, -1.00, 1599.5, 596.0)"> </text><text xml:space="preserve" font-family="Cochin,Cochin" font-size="56.0" fill="#515151" transform="matrix(1.00, 0.00, -0.00, -1.00, 1613.5, 596.0)">o</text><text xml:space="preserve" font-family="Cochin,Cochin" font-size="56.0" fill="#515151" transform="matrix(1.00, 0.00, -0.00, -1.00, 1641.5, 596.0)">n</text><text xml:space="preserve" font-family="Cochin,Cochin" font-size="42.0" fill="#515050" transform="matrix(1.00, 0.00, -0.00, -1.00, 174.0, 480.0)">•</text><text xml:space="preserve" font-family="Cochin,Cochin" font-size="56.0" fill="#515151" transform="matrix(1.00, 0.00, -0.00, -1.00, 224.0, 476.0)">G</text><text xml:space="preserve" font-family="Cochin,Cochin" font-size="56.0" fill="#515151" transform="matrix(1.00, 0.00, -0.00, -1.00, 267.6, 476.0)">i</text><text xml:space="preserve" font-family="Cochin,Cochin" font-size="56.0" fill="#515151" transform="matrix(1.00, 0.00, -0.00, -1.00, 282.1, 476.0)">t</text><text xml:space="preserve" font-family="Cochin,Cochin" font-size="56.0" fill="#515151" transform="matrix(1.00, 0.00, -0.00, -1.00, 299.7, 476.0)">:</text><text xml:space="preserve" font-family="Cochin,Cochin" font-size="56.0" fill="#515151" transform="matrix(1.00, 0.00, -0.00, -1.00, 313.7, 476.0)"> </text><text xml:space="preserve" font-family="Cochin,Cochin" font-size="56.0" fill="#515151" transform="matrix(1.00, 0.00, -0.00, -1.00, 327.7, 476.0)">A</text><text xml:space="preserve" font-family="Cochin,Cochin" font-size="56.0" fill="#515151" transform="matrix(1.00, 0.00, -0.00, -1.00, 367.1, 476.0)">b</text><text xml:space="preserve" font-family="Cochin,Cochin" font-size="56.0" fill="#515151" transform="matrix(1.00, 0.00, -0.00, -1.00, 397.2, 476.0)">l</text><text xml:space="preserve" font-family="Cochin,Cochin" font-size="56.0" fill="#515151" transform="matrix(1.00, 0.00, -0.00, -1.00, 411.7, 476.0)">e</text><text xml:space="preserve" font-family="Cochin,Cochin" font-size="56.0" fill="#515151" transform="matrix(1.00, 0.00, -0.00, -1.00, 436.6, 476.0)"> </text><text xml:space="preserve" font-family="Cochin,Cochin" font-size="56.0" fill="#515151" transform="matrix(1.00, 0.00, -0.00, -1.00, 450.6, 476.0)">t</text><text xml:space="preserve" font-family="Cochin,Cochin" font-size="56.0" fill="#515151" transform="matrix(1.00, 0.00, -0.00, -1.00, 468.2, 476.0)">o</text><text xml:space="preserve" font-family="Cochin,Cochin" font-size="56.0" fill="#515151" transform="matrix(1.00, 0.00, -0.00, -1.00, 496.2, 476.0)"> </text><text xml:space="preserve" font-family="Cochin,Cochin" font-size="56.0" fill="#515151" transform="matrix(1.00, 0.00, -0.00, -1.00, 510.2, 476.0)">p</text><text xml:space="preserve" font-family="Cochin,Cochin" font-size="56.0" fill="#515151" transform="matrix(1.00, 0.00, -0.00, -1.00, 540.3, 476.0)">e</text><text xml:space="preserve" font-family="Cochin,Cochin" font-size="56.0" fill="#515151" transform="matrix(1.00, 0.00, -0.00, -1.00, 565.2, 476.0)">r</text><text xml:space="preserve" font-family="Cochin,Cochin" font-size="56.0" fill="#515151" transform="matrix(1.00, 0.00, -0.00, -1.00, 586.9, 476.0)">f</text><text xml:space="preserve" font-family="Cochin,Cochin" font-size="56.0" fill="#515151" transform="matrix(1.00, 0.00, -0.00, -1.00, 604.6, 476.0)">o</text><text xml:space="preserve" font-family="Cochin,Cochin" font-size="56.0" fill="#515151" transform="matrix(1.00, 0.00, -0.00, -1.00, 632.6, 476.0)">r</text><text xml:space="preserve" font-family="Cochin,Cochin" font-size="56.0" fill="#515151" transform="matrix(1.00, 0.00, -0.00, -1.00, 654.4, 476.0)">m</text><text xml:space="preserve" font-family="Cochin,Cochin" font-size="56.0" fill="#515151" transform="matrix(1.00, 0.00, -0.00, -1.00, 697.9, 476.0)"> </text><text xml:space="preserve" font-family="Cochin,Cochin" font-size="56.0" fill="#515151" transform="matrix(1.00, 0.00, -0.00, -1.00, 711.9, 476.0)">m</text><text xml:space="preserve" font-family="Cochin,Cochin" font-size="56.0" fill="#515151" transform="matrix(1.00, 0.00, -0.00, -1.00, 755.5, 476.0)">o</text><text xml:space="preserve" font-family="Cochin,Cochin" font-size="56.0" fill="#515151" transform="matrix(1.00, 0.00, -0.00, -1.00, 783.5, 476.0)">s</text><text xml:space="preserve" font-family="Cochin,Cochin" font-size="56.0" fill="#515151" transform="matrix(1.00, 0.00, -0.00, -1.00, 805.3, 476.0)">t</text><text xml:space="preserve" font-family="Cochin,Cochin" font-size="56.0" fill="#515151" transform="matrix(1.00, 0.00, -0.00, -1.00, 822.9, 476.0)"> </text><text xml:space="preserve" font-family="Cochin,Cochin" font-size="56.0" fill="#515151" transform="matrix(1.00, 0.00, -0.00, -1.00, 836.9, 476.0)">o</text><text xml:space="preserve" font-family="Cochin,Cochin" font-size="56.0" fill="#515151" transform="matrix(1.00, 0.00, -0.00, -1.00, 864.9, 476.0)">p</text><text xml:space="preserve" font-family="Cochin,Cochin" font-size="56.0" fill="#515151" transform="matrix(1.00, 0.00, -0.00, -1.00, 895.0, 476.0)">e</text><text xml:space="preserve" font-family="Cochin,Cochin" font-size="56.0" fill="#515151" transform="matrix(1.00, 0.00, -0.00, -1.00, 919.9, 476.0)">r</text><text xml:space="preserve" font-family="Cochin,Cochin" font-size="56.0" fill="#515151" transform="matrix(1.00, 0.00, -0.00, -1.00, 941.6, 476.0)">a</text><text xml:space="preserve" font-family="Cochin,Cochin" font-size="56.0" fill="#515151" transform="matrix(1.00, 0.00, -0.00, -1.00, 967.6, 476.0)">t</text><text xml:space="preserve" font-family="Cochin,Cochin" font-size="56.0" fill="#515151" transform="matrix(1.00, 0.00, -0.00, -1.00, 985.2, 476.0)">i</text><text xml:space="preserve" font-family="Cochin,Cochin" font-size="56.0" fill="#515151" transform="matrix(1.00, 0.00, -0.00, -1.00, 999.7, 476.0)">o</text><text xml:space="preserve" font-family="Cochin,Cochin" font-size="56.0" fill="#515151" transform="matrix(1.00, 0.00, -0.00, -1.00, 1027.7, 476.0)">n</text><text xml:space="preserve" font-family="Cochin,Cochin" font-size="56.0" fill="#515151" transform="matrix(1.00, 0.00, -0.00, -1.00, 1057.8, 476.0)">s</text><text xml:space="preserve" font-family="Cochin,Cochin" font-size="56.0" fill="#515151" transform="matrix(1.00, 0.00, -0.00, -1.00, 1079.6, 476.0)"> </text><text xml:space="preserve" font-family="Cochin,Cochin" font-size="56.0" fill="#515151" transform="matrix(1.00, 0.00, -0.00, -1.00, 1093.6, 476.0)">l</text><text xml:space="preserve" font-family="Cochin,Cochin" font-size="56.0" fill="#515151" transform="matrix(1.00, 0.00, -0.00, -1.00, 1108.1, 476.0)">o</text><text xml:space="preserve" font-family="Cochin,Cochin" font-size="56.0" fill="#515151" transform="matrix(1.00, 0.00, -0.00, -1.00, 1136.1, 476.0)">c</text><text xml:space="preserve" font-family="Cochin,Cochin" font-size="56.0" fill="#515151" transform="matrix(1.00, 0.00, -0.00, -1.00, 1160.9, 476.0)">a</text><text xml:space="preserve" font-family="Cochin,Cochin" font-size="56.0" fill="#515151" transform="matrix(1.00, 0.00, -0.00, -1.00, 1186.9, 476.0)">l</text><text xml:space="preserve" font-family="Cochin,Cochin" font-size="56.0" fill="#515151" transform="matrix(1.00, 0.00, -0.00, -1.00, 1201.4, 476.0)">l</text><text xml:space="preserve" font-family="Cochin,Cochin" font-size="56.0" fill="#515151" transform="matrix(1.00, 0.00, -0.00, -1.00, 1215.9, 476.0)">y</text><text xml:space="preserve" font-family="Cochin,Cochin" font-size="42.0" fill="#515050" transform="matrix(1.00, 0.00, -0.00, -1.00, 124.0, 360.0)">•</text><text xml:space="preserve" font-family="Cochin,Cochin" font-size="56.0" fill="#515151" transform="matrix(1.00, 0.00, -0.00, -1.00, 174.0, 356.0)">B</text><text xml:space="preserve" font-family="Cochin,Cochin" font-size="56.0" fill="#515151" transform="matrix(1.00, 0.00, -0.00, -1.00, 212.4, 356.0)">r</text><text xml:space="preserve" font-family="Cochin,Cochin" font-size="56.0" fill="#515151" transform="matrix(1.00, 0.00, -0.00, -1.00, 234.1, 356.0)">a</text><text xml:space="preserve" font-family="Cochin,Cochin" font-size="56.0" fill="#515151" transform="matrix(1.00, 0.00, -0.00, -1.00, 260.1, 356.0)">n</text><text xml:space="preserve" font-family="Cochin,Cochin" font-size="56.0" fill="#515151" transform="matrix(1.00, 0.00, -0.00, -1.00, 290.1, 356.0)">c</text><text xml:space="preserve" font-family="Cochin,Cochin" font-size="56.0" fill="#515151" transform="matrix(1.00, 0.00, -0.00, -1.00, 315.0, 356.0)">h</text><text xml:space="preserve" font-family="Cochin,Cochin" font-size="56.0" fill="#515151" transform="matrix(1.00, 0.00, -0.00, -1.00, 345.1, 356.0)">e</text><text xml:space="preserve" font-family="Cochin,Cochin" font-size="56.0" fill="#515151" transform="matrix(1.00, 0.00, -0.00, -1.00, 369.9, 356.0)">s</text><text xml:space="preserve" font-family="Cochin,Cochin" font-size="56.0" fill="#515151" transform="matrix(1.00, 0.00, -0.00, -1.00, 391.7, 356.0)">/</text><text xml:space="preserve" font-family="Cochin,Cochin" font-size="56.0" fill="#515151" transform="matrix(1.00, 0.00, -0.00, -1.00, 407.3, 356.0)">T</text><text xml:space="preserve" font-family="Cochin,Cochin" font-size="56.0" fill="#515151" transform="matrix(1.00, 0.00, -0.00, -1.00, 439.4, 356.0)">a</text><text xml:space="preserve" font-family="Cochin,Cochin" font-size="56.0" fill="#515151" transform="matrix(1.00, 0.00, -0.00, -1.00, 465.4, 356.0)">g</text><text xml:space="preserve" font-family="Cochin,Cochin" font-size="56.0" fill="#515151" transform="matrix(1.00, 0.00, -0.00, -1.00, 493.4, 356.0)">s</text><text xml:space="preserve" font-family="Cochin,Cochin" font-size="42.0" fill="#515050" transform="matrix(1.00, 0.00, -0.00, -1.00, 174.0, 240.0)">•</text><text xml:space="preserve" font-family="Cochin,Cochin" font-size="56.0" fill="#515151" transform="matrix(1.00, 0.00, -0.00, -1.00, 224.0, 236.0)">G</text><text xml:space="preserve" font-family="Cochin,Cochin" font-size="56.0" fill="#515151" transform="matrix(1.00, 0.00, -0.00, -1.00, 267.6, 236.0)">i</text><text xml:space="preserve" font-family="Cochin,Cochin" font-size="56.0" fill="#515151" transform="matrix(1.00, 0.00, -0.00, -1.00, 282.1, 236.0)">t</text><text xml:space="preserve" font-family="Cochin,Cochin" font-size="56.0" fill="#515151" transform="matrix(1.00, 0.00, -0.00, -1.00, 299.7, 236.0)"> </text><text xml:space="preserve" font-family="Cochin,Cochin" font-size="56.0" fill="#515151" transform="matrix(1.00, 0.00, -0.00, -1.00, 313.7, 236.0)">i</text><text xml:space="preserve" font-family="Cochin,Cochin" font-size="56.0" fill="#515151" transform="matrix(1.00, 0.00, -0.00, -1.00, 328.2, 236.0)">s</text><text xml:space="preserve" font-family="Cochin,Cochin" font-size="56.0" fill="#515151" transform="matrix(1.00, 0.00, -0.00, -1.00, 350.0, 236.0)"> </text><text xml:space="preserve" font-family="Cochin,Cochin" font-size="56.0" fill="#515151" transform="matrix(1.00, 0.00, -0.00, -1.00, 364.0, 236.0)">e</text><text xml:space="preserve" font-family="Cochin,Cochin" font-size="56.0" fill="#515151" transform="matrix(1.00, 0.00, -0.00, -1.00, 388.9, 236.0)">a</text><text xml:space="preserve" font-family="Cochin,Cochin" font-size="56.0" fill="#515151" transform="matrix(1.00, 0.00, -0.00, -1.00, 414.8, 236.0)">s</text><text xml:space="preserve" font-family="Cochin,Cochin" font-size="56.0" fill="#515151" transform="matrix(1.00, 0.00, -0.00, -1.00, 436.6, 236.0)">i</text><text xml:space="preserve" font-family="Cochin,Cochin" font-size="56.0" fill="#515151" transform="matrix(1.00, 0.00, -0.00, -1.00, 451.1, 236.0)">e</text><text xml:space="preserve" font-family="Cochin,Cochin" font-size="56.0" fill="#515151" transform="matrix(1.00, 0.00, -0.00, -1.00, 475.9, 236.0)">r</text><text xml:space="preserve" font-family="Cochin,Cochin" font-size="56.0" fill="#515151" transform="matrix(1.00, 0.00, -0.00, -1.00, 497.7, 236.0)"> </text><text xml:space="preserve" font-family="Cochin,Cochin" font-size="56.0" fill="#515151" transform="matrix(1.00, 0.00, -0.00, -1.00, 511.7, 236.0)">t</text><text xml:space="preserve" font-family="Cochin,Cochin" font-size="56.0" fill="#515151" transform="matrix(1.00, 0.00, -0.00, -1.00, 529.4, 236.0)">h</text><text xml:space="preserve" font-family="Cochin,Cochin" font-size="56.0" fill="#515151" transform="matrix(1.00, 0.00, -0.00, -1.00, 559.4, 236.0)">a</text><text xml:space="preserve" font-family="Cochin,Cochin" font-size="56.0" fill="#515151" transform="matrix(1.00, 0.00, -0.00, -1.00, 585.4, 236.0)">n</text><text xml:space="preserve" font-family="Cochin,Cochin" font-size="56.0" fill="#515151" transform="matrix(1.00, 0.00, -0.00, -1.00, 615.4, 236.0)"> </text><text xml:space="preserve" font-family="Cochin,Cochin" font-size="56.0" fill="#515151" transform="matrix(1.00, 0.00, -0.00, -1.00, 629.4, 236.0)">S</text><text xml:space="preserve" font-family="Cochin,Cochin" font-size="56.0" fill="#515151" transform="matrix(1.00, 0.00, -0.00, -1.00, 662.6, 236.0)">V</text><text xml:space="preserve" font-family="Cochin,Cochin" font-size="56.0" fill="#515151" transform="matrix(1.00, 0.00, -0.00, -1.00, 702.1, 236.0)">N</text></g></g></g><g opacity="0.90"><g><clipPath id="clip0x6000008b6740"><path d="M 947.0 14.0 L 971.0 14.0 L 971.0 55.0 L 947.0 55.0 Z M 947.0 14.0 "></path></clipPath><g clip-path="url(#clip0x6000008b6740)"><text xml:space="preserve" font-family="Cochin,Cochin" font-size="28.0" fill="#515050" transform="matrix(1.00, 0.00, -0.00, -1.00, 952.0, 26.0)">6</text></g></g></g></g></svg>