<?xml version="1.0" encoding="UTF-8" standalone="no"?><svg xmlns="http://www.w3.org/2000/svg" xmlns:xlink="http://www.w3.org/1999/xlink" clip-rule="evenodd" stroke-miterlimit="10" viewBox="0 0 1920 1080"><desc>SVG generated by Keynote</desc><defs></defs><g transform="matrix(1.00, 0.00, -0.00, -1.00, 0.0, 1080.0)"><g><clipPath id="clip0x6000008abee0"><path d="M 0.0 1080.0 L 1920.0 1080.0 L 1920.0 0.0 L 0.0 0.0 Z M 0.0 1080.0 "></path></clipPath><g clip-path="url(#clip0x6000008abee0)"><image xlink:href="../../5D8AB9B9-3D8E-4B06-B542-BC95DAAA4419/assets/18F8971E445B25125F850F9CF2CFFF78.jpeg" width="3840.00" height="2160.00" transform="matrix(0.50, 0.00, -0.00, -0.50, 0.0, 1080.0)"></image></g></g><g opacity="0.90"><image xlink:href="06F74548D3EA25FEC37488ECF07696C9.png" width="464.00" height="79.00" transform="matrix(1.00, 0.00, -0.00, -1.00, 733.0, 951.0)"></image><g><clipPath id="clip0x6100008b6620"><path d="M 120.0 810.0 L 1800.0 810.0 L 1800.0 1020.0 L 120.0 1020.0 Z M 120.0 810.0 "></path></clipPath><g clip-path="url(#clip0x6100008b6620)"><text xml:space="preserve" font-family="Cochin,Cochin" font-size="104.0" fill="#515151" transform="matrix(1.00, 0.00, -0.00, -1.00, 727.9, 881.0)">G</text><text xml:space="preserve" font-family="Cochin,Cochin" font-size="104.0" fill="#515151" transform="matrix(1.00, 0.00, -0.00, -1.00, 808.8, 881.0)">i</text><text xml:space="preserve" font-family="Cochin,Cochin" font-size="104.0" fill="#515151" transform="matrix(1.00, 0.00, -0.00, -1.00, 835.7, 881.0)">t</text><text xml:space="preserve" font-family="Cochin,Cochin" font-size="104.0" fill="#515151" transform="matrix(1.00, 0.00, -0.00, -1.00, 868.5, 881.0)"> </text><text xml:space="preserve" font-family="Cochin,Cochin" font-size="104.0" fill="#515151" transform="matrix(1.00, 0.00, -0.00, -1.00, 894.5, 881.0)">+</text><text xml:space="preserve" font-family="Cochin,Cochin" font-size="104.0" fill="#515151" transform="matrix(1.00, 0.00, -0.00, -1.00, 946.5, 881.0)"> </text><text xml:space="preserve" font-family="Cochin,Cochin" font-size="104.0" fill="#515151" transform="matrix(1.00, 0.00, -0.00, -1.00, 972.5, 881.0)">S</text><text xml:space="preserve" font-family="Cochin,Cochin" font-size="104.0" fill="#515151" transform="matrix(1.00, 0.00, -0.00, -1.00, 1034.2, 881.0)">V</text><text xml:space="preserve" font-family="Cochin,Cochin" font-size="104.0" fill="#515151" transform="matrix(1.00, 0.00, -0.00, -1.00, 1107.4, 881.0)">N</text></g></g></g><g opacity="0.90"><g><clipPath id="clip0x6100008b5ea0"><path d="M 120.0 140.0 L 1800.0 140.0 L 1800.0 770.0 L 120.0 770.0 Z M 120.0 140.0 "></path></clipPath><g clip-path="url(#clip0x6100008b5ea0)"><text xml:space="preserve" font-family="Cochin,Cochin" font-size="42.0" fill="#515050" transform="matrix(1.00, 0.00, -0.00, -1.00, 124.0, 720.0)">•</text><text xml:space="preserve" font-family="Cochin,Cochin" font-size="56.0" fill="#515151" transform="matrix(1.00, 0.00, -0.00, -1.00, 174.0, 716.0)">W</text><text xml:space="preserve" font-family="Cochin,Cochin" font-size="56.0" fill="#515151" transform="matrix(1.00, 0.00, -0.00, -1.00, 230.0, 716.0)">h</text><text xml:space="preserve" font-family="Cochin,Cochin" font-size="56.0" fill="#515151" transform="matrix(1.00, 0.00, -0.00, -1.00, 260.1, 716.0)">y</text><text xml:space="preserve" font-family="Cochin,Cochin" font-size="56.0" fill="#515151" transform="matrix(1.00, 0.00, -0.00, -1.00, 288.1, 716.0)"> </text><text xml:space="preserve" font-family="Cochin,Cochin" font-size="56.0" fill="#515151" transform="matrix(1.00, 0.00, -0.00, -1.00, 302.1, 716.0)">n</text><text xml:space="preserve" font-family="Cochin,Cochin" font-size="56.0" fill="#515151" transform="matrix(1.00, 0.00, -0.00, -1.00, 332.1, 716.0)">o</text><text xml:space="preserve" font-family="Cochin,Cochin" font-size="56.0" fill="#515151" transform="matrix(1.00, 0.00, -0.00, -1.00, 360.1, 716.0)">t</text><text xml:space="preserve" font-family="Cochin,Cochin" font-size="56.0" fill="#515151" transform="matrix(1.00, 0.00, -0.00, -1.00, 377.8, 716.0)"> </text><text xml:space="preserve" font-family="Cochin,Cochin" font-size="56.0" fill="#515151" transform="matrix(1.00, 0.00, -0.00, -1.00, 391.8, 716.0)">u</text><text xml:space="preserve" font-family="Cochin,Cochin" font-size="56.0" fill="#515151" transform="matrix(1.00, 0.00, -0.00, -1.00, 421.9, 716.0)">s</text><text xml:space="preserve" font-family="Cochin,Cochin" font-size="56.0" fill="#515151" transform="matrix(1.00, 0.00, -0.00, -1.00, 443.6, 716.0)">i</text><text xml:space="preserve" font-family="Cochin,Cochin" font-size="56.0" fill="#515151" transform="matrix(1.00, 0.00, -0.00, -1.00, 458.1, 716.0)">n</text><text xml:space="preserve" font-family="Cochin,Cochin" font-size="56.0" fill="#515151" transform="matrix(1.00, 0.00, -0.00, -1.00, 488.2, 716.0)">g</text><text xml:space="preserve" font-family="Cochin,Cochin" font-size="56.0" fill="#515151" transform="matrix(1.00, 0.00, -0.00, -1.00, 516.2, 716.0)"> </text><text xml:space="preserve" font-family="Cochin,Cochin" font-size="56.0" fill="#515151" transform="matrix(1.00, 0.00, -0.00, -1.00, 530.2, 716.0)">t</text><text xml:space="preserve" font-family="Cochin,Cochin" font-size="56.0" fill="#515151" transform="matrix(1.00, 0.00, -0.00, -1.00, 547.9, 716.0)">h</text><text xml:space="preserve" font-family="Cochin,Cochin" font-size="56.0" fill="#515151" transform="matrix(1.00, 0.00, -0.00, -1.00, 577.9, 716.0)">e</text><text xml:space="preserve" font-family="Cochin,Cochin" font-size="56.0" fill="#515151" transform="matrix(1.00, 0.00, -0.00, -1.00, 602.8, 716.0)"> </text><text xml:space="preserve" font-family="Cochin,Cochin" font-size="56.0" fill="#515151" transform="matrix(1.00, 0.00, -0.00, -1.00, 616.8, 716.0)">`</text><text xml:space="preserve" font-family="Cochin,Cochin" font-size="56.0" fill="#515151" transform="matrix(1.00, 0.00, -0.00, -1.00, 631.3, 716.0)">g</text><text xml:space="preserve" font-family="Cochin,Cochin" font-size="56.0" fill="#515151" transform="matrix(1.00, 0.00, -0.00, -1.00, 659.3, 716.0)">i</text><text xml:space="preserve" font-family="Cochin,Cochin" font-size="56.0" fill="#515151" transform="matrix(1.00, 0.00, -0.00, -1.00, 673.8, 716.0)">t</text><text xml:space="preserve" font-family="Cochin,Cochin" font-size="56.0" fill="#515151" transform="matrix(1.00, 0.00, -0.00, -1.00, 691.4, 716.0)">-</text><text xml:space="preserve" font-family="Cochin,Cochin" font-size="56.0" fill="#515151" transform="matrix(1.00, 0.00, -0.00, -1.00, 710.1, 716.0)">s</text><text xml:space="preserve" font-family="Cochin,Cochin" font-size="56.0" fill="#515151" transform="matrix(1.00, 0.00, -0.00, -1.00, 731.9, 716.0)">v</text><text xml:space="preserve" font-family="Cochin,Cochin" font-size="56.0" fill="#515151" transform="matrix(1.00, 0.00, -0.00, -1.00, 759.9, 716.0)">n</text><text xml:space="preserve" font-family="Cochin,Cochin" font-size="56.0" fill="#515151" transform="matrix(1.00, 0.00, -0.00, -1.00, 789.9, 716.0)">`</text><text xml:space="preserve" font-family="Cochin,Cochin" font-size="56.0" fill="#515151" transform="matrix(1.00, 0.00, -0.00, -1.00, 804.4, 716.0)"> </text><text xml:space="preserve" font-family="Cochin,Cochin" font-size="56.0" fill="#515151" transform="matrix(1.00, 0.00, -0.00, -1.00, 818.4, 716.0)">b</text><text xml:space="preserve" font-family="Cochin,Cochin" font-size="56.0" fill="#515151" transform="matrix(1.00, 0.00, -0.00, -1.00, 848.5, 716.0)">r</text><text xml:space="preserve" font-family="Cochin,Cochin" font-size="56.0" fill="#515151" transform="matrix(1.00, 0.00, -0.00, -1.00, 870.3, 716.0)">i</text><text xml:space="preserve" font-family="Cochin,Cochin" font-size="56.0" fill="#515151" transform="matrix(1.00, 0.00, -0.00, -1.00, 884.8, 716.0)">d</text><text xml:space="preserve" font-family="Cochin,Cochin" font-size="56.0" fill="#515151" transform="matrix(1.00, 0.00, -0.00, -1.00, 914.9, 716.0)">g</text><text xml:space="preserve" font-family="Cochin,Cochin" font-size="56.0" fill="#515151" transform="matrix(1.00, 0.00, -0.00, -1.00, 942.9, 716.0)">e</text><text xml:space="preserve" font-family="Cochin,Cochin" font-size="56.0" fill="#515151" transform="matrix(1.00, 0.00, -0.00, -1.00, 967.7, 716.0)">?</text><text xml:space="preserve" font-family="Cochin,Cochin" font-size="42.0" fill="#515050" transform="matrix(1.00, 0.00, -0.00, -1.00, 174.0, 600.0)">•</text><text xml:space="preserve" font-family="Cochin,Cochin" font-size="56.0" fill="#515151" transform="matrix(1.00, 0.00, -0.00, -1.00, 224.0, 596.0)">t</text><text xml:space="preserve" font-family="Cochin,Cochin" font-size="56.0" fill="#515151" transform="matrix(1.00, 0.00, -0.00, -1.00, 241.6, 596.0)">a</text><text xml:space="preserve" font-family="Cochin,Cochin" font-size="56.0" fill="#515151" transform="matrix(1.00, 0.00, -0.00, -1.00, 267.6, 596.0)">k</text><text xml:space="preserve" font-family="Cochin,Cochin" font-size="56.0" fill="#515151" transform="matrix(1.00, 0.00, -0.00, -1.00, 297.6, 596.0)">e</text><text xml:space="preserve" font-family="Cochin,Cochin" font-size="56.0" fill="#515151" transform="matrix(1.00, 0.00, -0.00, -1.00, 322.5, 596.0)"> </text><text xml:space="preserve" font-family="Cochin,Cochin" font-size="56.0" fill="#515151" transform="matrix(1.00, 0.00, -0.00, -1.00, 336.5, 596.0)">c</text><text xml:space="preserve" font-family="Cochin,Cochin" font-size="56.0" fill="#515151" transform="matrix(1.00, 0.00, -0.00, -1.00, 361.4, 596.0)">a</text><text xml:space="preserve" font-family="Cochin,Cochin" font-size="56.0" fill="#515151" transform="matrix(1.00, 0.00, -0.00, -1.00, 387.3, 596.0)">r</text><text xml:space="preserve" font-family="Cochin,Cochin" font-size="56.0" fill="#515151" transform="matrix(1.00, 0.00, -0.00, -1.00, 409.1, 596.0)">e</text><text xml:space="preserve" font-family="Cochin,Cochin" font-size="56.0" fill="#515151" transform="matrix(1.00, 0.00, -0.00, -1.00, 433.9, 596.0)"> </text><text xml:space="preserve" font-family="Cochin,Cochin" font-size="56.0" fill="#515151" transform="matrix(1.00, 0.00, -0.00, -1.00, 447.9, 596.0)">o</text><text xml:space="preserve" font-family="Cochin,Cochin" font-size="56.0" fill="#515151" transform="matrix(1.00, 0.00, -0.00, -1.00, 475.9, 596.0)">f</text><text xml:space="preserve" font-family="Cochin,Cochin" font-size="56.0" fill="#515151" transform="matrix(1.00, 0.00, -0.00, -1.00, 493.6, 596.0)"> </text><text xml:space="preserve" font-family="Cochin,Cochin" font-size="56.0" fill="#515151" transform="matrix(1.00, 0.00, -0.00, -1.00, 507.6, 596.0)">G</text><text xml:space="preserve" font-family="Cochin,Cochin" font-size="56.0" fill="#515151" transform="matrix(1.00, 0.00, -0.00, -1.00, 551.2, 596.0)">i</text><text xml:space="preserve" font-family="Cochin,Cochin" font-size="56.0" fill="#515151" transform="matrix(1.00, 0.00, -0.00, -1.00, 565.7, 596.0)">t</text><text xml:space="preserve" font-family="Cochin,Cochin" font-size="56.0" fill="#515151" transform="matrix(1.00, 0.00, -0.00, -1.00, 583.3, 596.0)"> </text><text xml:space="preserve" font-family="Cochin,Cochin" font-size="56.0" fill="#515151" transform="matrix(1.00, 0.00, -0.00, -1.00, 597.3, 596.0)">c</text><text xml:space="preserve" font-family="Cochin,Cochin" font-size="56.0" fill="#515151" transform="matrix(1.00, 0.00, -0.00, -1.00, 622.2, 596.0)">o</text><text xml:space="preserve" font-family="Cochin,Cochin" font-size="56.0" fill="#515151" transform="matrix(1.00, 0.00, -0.00, -1.00, 650.2, 596.0)">m</text><text xml:space="preserve" font-family="Cochin,Cochin" font-size="56.0" fill="#515151" transform="matrix(1.00, 0.00, -0.00, -1.00, 693.7, 596.0)">m</text><text xml:space="preserve" font-family="Cochin,Cochin" font-size="56.0" fill="#515151" transform="matrix(1.00, 0.00, -0.00, -1.00, 737.3, 596.0)">i</text><text xml:space="preserve" font-family="Cochin,Cochin" font-size="56.0" fill="#515151" transform="matrix(1.00, 0.00, -0.00, -1.00, 751.8, 596.0)">t</text><text xml:space="preserve" font-family="Cochin,Cochin" font-size="56.0" fill="#515151" transform="matrix(1.00, 0.00, -0.00, -1.00, 769.4, 596.0)">s</text><text xml:space="preserve" font-family="Cochin,Cochin" font-size="56.0" fill="#515151" transform="matrix(1.00, 0.00, -0.00, -1.00, 791.2, 596.0)"> </text><text xml:space="preserve" font-family="Cochin,Cochin" font-size="56.0" fill="#515151" transform="matrix(1.00, 0.00, -0.00, -1.00, 805.2, 596.0)">b</text><text xml:space="preserve" font-family="Cochin,Cochin" font-size="56.0" fill="#515151" transform="matrix(1.00, 0.00, -0.00, -1.00, 835.3, 596.0)">e</text><text xml:space="preserve" font-family="Cochin,Cochin" font-size="56.0" fill="#515151" transform="matrix(1.00, 0.00, -0.00, -1.00, 860.2, 596.0)">f</text><text xml:space="preserve" font-family="Cochin,Cochin" font-size="56.0" fill="#515151" transform="matrix(1.00, 0.00, -0.00, -1.00, 877.8, 596.0)">o</text><text xml:space="preserve" font-family="Cochin,Cochin" font-size="56.0" fill="#515151" transform="matrix(1.00, 0.00, -0.00, -1.00, 905.8, 596.0)">r</text><text xml:space="preserve" font-family="Cochin,Cochin" font-size="56.0" fill="#515151" transform="matrix(1.00, 0.00, -0.00, -1.00, 927.6, 596.0)">e</text><text xml:space="preserve" font-family="Cochin,Cochin" font-size="56.0" fill="#515151" transform="matrix(1.00, 0.00, -0.00, -1.00, 952.4, 596.0)"> </text><text xml:space="preserve" font-family="Cochin,Cochin" font-size="56.0" fill="#515151" transform="matrix(1.00, 0.00, -0.00, -1.00, 966.4, 596.0)">p</text><text xml:space="preserve" font-family="Cochin,Cochin" font-size="56.0" fill="#515151" transform="matrix(1.00, 0.00, -0.00, -1.00, 996.5, 596.0)">u</text><text xml:space="preserve" font-family="Cochin,Cochin" font-size="56.0" fill="#515151" transform="matrix(1.00, 0.00, -0.00, -1.00, 1026.6, 596.0)">s</text><text xml:space="preserve" font-family="Cochin,Cochin" font-size="56.0" fill="#515151" transform="matrix(1.00, 0.00, -0.00, -1.00, 1048.4, 596.0)">h</text><text xml:space="preserve" font-family="Cochin,Cochin" font-size="56.0" fill="#515151" transform="matrix(1.00, 0.00, -0.00, -1.00, 1078.4, 596.0)"> </text><text xml:space="preserve" font-family="Cochin,Cochin" font-size="56.0" fill="#515151" transform="matrix(1.00, 0.00, -0.00, -1.00, 1092.4, 596.0)">t</text><text xml:space="preserve" font-family="Cochin,Cochin" font-size="56.0" fill="#515151" transform="matrix(1.00, 0.00, -0.00, -1.00, 1110.1, 596.0)">o</text><text xml:space="preserve" font-family="Cochin,Cochin" font-size="56.0" fill="#515151" transform="matrix(1.00, 0.00, -0.00, -1.00, 1138.1, 596.0)"> </text><text xml:space="preserve" font-family="Cochin,Cochin" font-size="56.0" fill="#515151" transform="matrix(1.00, 0.00, -0.00, -1.00, 1152.1, 596.0)">S</text><text xml:space="preserve" font-family="Cochin,Cochin" font-size="56.0" fill="#515151" transform="matrix(1.00, 0.00, -0.00, -1.00, 1185.3, 596.0)">V</text><text xml:space="preserve" font-family="Cochin,Cochin" font-size="56.0" fill="#515151" transform="matrix(1.00, 0.00, -0.00, -1.00, 1224.7, 596.0)">N</text><text xml:space="preserve" font-family="Cochin,Cochin" font-size="56.0" fill="#515151" transform="matrix(1.00, 0.00, -0.00, -1.00, 1270.4, 596.0)"> </text><text xml:space="preserve" font-family="Cochin,Cochin" font-size="56.0" fill="#515151" transform="matrix(1.00, 0.00, -0.00, -1.00, 1284.4, 596.0)">(</text><text xml:space="preserve" font-family="Cochin,Cochin" font-size="56.0" fill="#515151" transform="matrix(1.00, 0.00, -0.00, -1.00, 1306.1, 596.0)">r</text><text xml:space="preserve" font-family="Cochin,Cochin" font-size="56.0" fill="#515151" transform="matrix(1.00, 0.00, -0.00, -1.00, 1327.9, 596.0)">e</text><text xml:space="preserve" font-family="Cochin,Cochin" font-size="56.0" fill="#515151" transform="matrix(1.00, 0.00, -0.00, -1.00, 1352.8, 596.0)">f</text><text xml:space="preserve" font-family="Cochin,Cochin" font-size="56.0" fill="#515151" transform="matrix(1.00, 0.00, -0.00, -1.00, 1370.4, 596.0)">e</text><text xml:space="preserve" font-family="Cochin,Cochin" font-size="56.0" fill="#515151" transform="matrix(1.00, 0.00, -0.00, -1.00, 1395.3, 596.0)">r</text><text xml:space="preserve" font-family="Cochin,Cochin" font-size="56.0" fill="#515151" transform="matrix(1.00, 0.00, -0.00, -1.00, 1417.1, 596.0)">e</text><text xml:space="preserve" font-family="Cochin,Cochin" font-size="56.0" fill="#515151" transform="matrix(1.00, 0.00, -0.00, -1.00, 1441.9, 596.0)">n</text><text xml:space="preserve" font-family="Cochin,Cochin" font-size="56.0" fill="#515151" transform="matrix(1.00, 0.00, -0.00, -1.00, 1472.0, 596.0)">c</text><text xml:space="preserve" font-family="Cochin,Cochin" font-size="56.0" fill="#515151" transform="matrix(1.00, 0.00, -0.00, -1.00, 1496.9, 596.0)">e</text><text xml:space="preserve" font-family="Cochin,Cochin" font-size="56.0" fill="#515151" transform="matrix(1.00, 0.00, -0.00, -1.00, 1521.7, 596.0)"> </text><text xml:space="preserve" font-family="Cochin,Cochin" font-size="56.0" fill="#515151" transform="matrix(1.00, 0.00, -0.00, -1.00, 1535.7, 596.0)">t</text><text xml:space="preserve" font-family="Cochin,Cochin" font-size="56.0" fill="#515151" transform="matrix(1.00, 0.00, -0.00, -1.00, 1553.4, 596.0)">o</text><text xml:space="preserve" font-family="Cochin,Cochin" font-size="56.0" fill="#515151" transform="matrix(1.00, 0.00, -0.00, -1.00, 1581.4, 596.0)"> </text><text xml:space="preserve" font-family="Cochin,Cochin" font-size="56.0" fill="#515151" transform="matrix(1.00, 0.00, -0.00, -1.00, 224.0, 532.0)">`</text><text xml:space="preserve" font-family="Cochin,Cochin" font-size="56.0" fill="#515151" transform="matrix(1.00, 0.00, -0.00, -1.00, 238.5, 532.0)">d</text><text xml:space="preserve" font-family="Cochin,Cochin" font-size="56.0" fill="#515151" transform="matrix(1.00, 0.00, -0.00, -1.00, 268.6, 532.0)">c</text><text xml:space="preserve" font-family="Cochin,Cochin" font-size="56.0" fill="#515151" transform="matrix(1.00, 0.00, -0.00, -1.00, 293.4, 532.0)">o</text><text xml:space="preserve" font-family="Cochin,Cochin" font-size="56.0" fill="#515151" transform="matrix(1.00, 0.00, -0.00, -1.00, 321.4, 532.0)">m</text><text xml:space="preserve" font-family="Cochin,Cochin" font-size="56.0" fill="#515151" transform="matrix(1.00, 0.00, -0.00, -1.00, 365.0, 532.0)">m</text><text xml:space="preserve" font-family="Cochin,Cochin" font-size="56.0" fill="#515151" transform="matrix(1.00, 0.00, -0.00, -1.00, 408.6, 532.0)">i</text><text xml:space="preserve" font-family="Cochin,Cochin" font-size="56.0" fill="#515151" transform="matrix(1.00, 0.00, -0.00, -1.00, 423.1, 532.0)">t</text><text xml:space="preserve" font-family="Cochin,Cochin" font-size="56.0" fill="#515151" transform="matrix(1.00, 0.00, -0.00, -1.00, 440.7, 532.0)">`</text><text xml:space="preserve" font-family="Cochin,Cochin" font-size="56.0" fill="#515151" transform="matrix(1.00, 0.00, -0.00, -1.00, 455.2, 532.0)"> </text><text xml:space="preserve" font-family="Cochin,Cochin" font-size="56.0" fill="#515151" transform="matrix(1.00, 0.00, -0.00, -1.00, 469.2, 532.0)">c</text><text xml:space="preserve" font-family="Cochin,Cochin" font-size="56.0" fill="#515151" transform="matrix(1.00, 0.00, -0.00, -1.00, 494.1, 532.0)">o</text><text xml:space="preserve" font-family="Cochin,Cochin" font-size="56.0" fill="#515151" transform="matrix(1.00, 0.00, -0.00, -1.00, 522.1, 532.0)">m</text><text xml:space="preserve" font-family="Cochin,Cochin" font-size="56.0" fill="#515151" transform="matrix(1.00, 0.00, -0.00, -1.00, 565.7, 532.0)">m</text><text xml:space="preserve" font-family="Cochin,Cochin" font-size="56.0" fill="#515151" transform="matrix(1.00, 0.00, -0.00, -1.00, 609.2, 532.0)">a</text><text xml:space="preserve" font-family="Cochin,Cochin" font-size="56.0" fill="#515151" transform="matrix(1.00, 0.00, -0.00, -1.00, 635.2, 532.0)">n</text><text xml:space="preserve" font-family="Cochin,Cochin" font-size="56.0" fill="#515151" transform="matrix(1.00, 0.00, -0.00, -1.00, 665.2, 532.0)">d</text><text xml:space="preserve" font-family="Cochin,Cochin" font-size="56.0" fill="#515151" transform="matrix(1.00, 0.00, -0.00, -1.00, 695.3, 532.0)">)</text><text xml:space="preserve" font-family="Cochin,Cochin" font-size="42.0" fill="#515050" transform="matrix(1.00, 0.00, -0.00, -1.00, 174.0, 416.0)">•</text><text xml:space="preserve" font-family="Cochin,Cochin" font-size="56.0" fill="#515151" transform="matrix(1.00, 0.00, -0.00, -1.00, 224.0, 412.0)">r</text><text xml:space="preserve" font-family="Cochin,Cochin" font-size="56.0" fill="#515151" transform="matrix(1.00, 0.00, -0.00, -1.00, 245.8, 412.0)">i</text><text xml:space="preserve" font-family="Cochin,Cochin" font-size="56.0" fill="#515151" transform="matrix(1.00, 0.00, -0.00, -1.00, 260.3, 412.0)">s</text><text xml:space="preserve" font-family="Cochin,Cochin" font-size="56.0" fill="#515151" transform="matrix(1.00, 0.00, -0.00, -1.00, 282.1, 412.0)">k</text><text xml:space="preserve" font-family="Cochin,Cochin" font-size="56.0" fill="#515151" transform="matrix(1.00, 0.00, -0.00, -1.00, 312.1, 412.0)"> </text><text xml:space="preserve" font-family="Cochin,Cochin" font-size="56.0" fill="#515151" transform="matrix(1.00, 0.00, -0.00, -1.00, 326.1, 412.0)">o</text><text xml:space="preserve" font-family="Cochin,Cochin" font-size="56.0" fill="#515151" transform="matrix(1.00, 0.00, -0.00, -1.00, 354.1, 412.0)">f</text><text xml:space="preserve" font-family="Cochin,Cochin" font-size="56.0" fill="#515151" transform="matrix(1.00, 0.00, -0.00, -1.00, 371.8, 412.0)"> </text><text xml:space="preserve" font-family="Cochin,Cochin" font-size="56.0" fill="#515151" transform="matrix(1.00, 0.00, -0.00, -1.00, 385.8, 412.0)">m</text><text xml:space="preserve" font-family="Cochin,Cochin" font-size="56.0" fill="#515151" transform="matrix(1.00, 0.00, -0.00, -1.00, 429.4, 412.0)">e</text><text xml:space="preserve" font-family="Cochin,Cochin" font-size="56.0" fill="#515151" transform="matrix(1.00, 0.00, -0.00, -1.00, 454.2, 412.0)">s</text><text xml:space="preserve" font-family="Cochin,Cochin" font-size="56.0" fill="#515151" transform="matrix(1.00, 0.00, -0.00, -1.00, 476.0, 412.0)">s</text><text xml:space="preserve" font-family="Cochin,Cochin" font-size="56.0" fill="#515151" transform="matrix(1.00, 0.00, -0.00, -1.00, 497.8, 412.0)">i</text><text xml:space="preserve" font-family="Cochin,Cochin" font-size="56.0" fill="#515151" transform="matrix(1.00, 0.00, -0.00, -1.00, 512.3, 412.0)">n</text><text xml:space="preserve" font-family="Cochin,Cochin" font-size="56.0" fill="#515151" transform="matrix(1.00, 0.00, -0.00, -1.00, 542.4, 412.0)">g</text><text xml:space="preserve" font-family="Cochin,Cochin" font-size="56.0" fill="#515151" transform="matrix(1.00, 0.00, -0.00, -1.00, 570.4, 412.0)"> </text><text xml:space="preserve" font-family="Cochin,Cochin" font-size="56.0" fill="#515151" transform="matrix(1.00, 0.00, -0.00, -1.00, 584.4, 412.0)">i</text><text xml:space="preserve" font-family="Cochin,Cochin" font-size="56.0" fill="#515151" transform="matrix(1.00, 0.00, -0.00, -1.00, 598.9, 412.0)">t</text><text xml:space="preserve" font-family="Cochin,Cochin" font-size="56.0" fill="#515151" transform="matrix(1.00, 0.00, -0.00, -1.00, 616.5, 412.0)"> </text><text xml:space="preserve" font-family="Cochin,Cochin" font-size="56.0" fill="#515151" transform="matrix(1.00, 0.00, -0.00, -1.00, 630.5, 412.0)">u</text><text xml:space="preserve" font-family="Cochin,Cochin" font-size="56.0" fill="#515151" transform="matrix(1.00, 0.00, -0.00, -1.00, 660.6, 412.0)">p</text><text xml:space="preserve" font-family="Cochin,Cochin" font-size="42.0" fill="#515050" transform="matrix(1.00, 0.00, -0.00, -1.00, 174.0, 296.0)">•</text><text xml:space="preserve" font-family="Cochin,Cochin" font-size="56.0" fill="#515151" transform="matrix(1.00, 0.00, -0.00, -1.00, 224.0, 292.0)">I</text><text xml:space="preserve" font-family="Cochin,Cochin" font-size="56.0" fill="#515151" transform="matrix(1.00, 0.00, -0.00, -1.00, 245.8, 292.0)"> </text><text xml:space="preserve" font-family="Cochin,Cochin" font-size="56.0" fill="#515151" transform="matrix(1.00, 0.00, -0.00, -1.00, 259.8, 292.0)">d</text><text xml:space="preserve" font-family="Cochin,Cochin" font-size="56.0" fill="#515151" transform="matrix(1.00, 0.00, -0.00, -1.00, 289.9, 292.0)">o</text><text xml:space="preserve" font-family="Cochin,Cochin" font-size="56.0" fill="#515151" transform="matrix(1.00, 0.00, -0.00, -1.00, 317.9, 292.0)">n</text><text xml:space="preserve" font-family="Cochin,Cochin" font-size="56.0" fill="#515151" transform="matrix(1.00, 0.00, -0.00, -1.00, 347.9, 292.0)">’</text><text xml:space="preserve" font-family="Cochin,Cochin" font-size="56.0" fill="#515151" transform="matrix(1.00, 0.00, -0.00, -1.00, 359.4, 292.0)">t</text><text xml:space="preserve" font-family="Cochin,Cochin" font-size="56.0" fill="#515151" transform="matrix(1.00, 0.00, -0.00, -1.00, 377.0, 292.0)"> </text><text xml:space="preserve" font-family="Cochin,Cochin" font-size="56.0" fill="#515151" transform="matrix(1.00, 0.00, -0.00, -1.00, 391.0, 292.0)">l</text><text xml:space="preserve" font-family="Cochin,Cochin" font-size="56.0" fill="#515151" transform="matrix(1.00, 0.00, -0.00, -1.00, 405.5, 292.0)">i</text><text xml:space="preserve" font-family="Cochin,Cochin" font-size="56.0" fill="#515151" transform="matrix(1.00, 0.00, -0.00, -1.00, 420.0, 292.0)">k</text><text xml:space="preserve" font-family="Cochin,Cochin" font-size="56.0" fill="#515151" transform="matrix(1.00, 0.00, -0.00, -1.00, 450.1, 292.0)">e</text><text xml:space="preserve" font-family="Cochin,Cochin" font-size="56.0" fill="#515151" transform="matrix(1.00, 0.00, -0.00, -1.00, 474.9, 292.0)"> </text><text xml:space="preserve" font-family="Cochin,Cochin" font-size="56.0" fill="#515151" transform="matrix(1.00, 0.00, -0.00, -1.00, 488.9, 292.0)">i</text><text xml:space="preserve" font-family="Cochin,Cochin" font-size="56.0" fill="#515151" transform="matrix(1.00, 0.00, -0.00, -1.00, 503.4, 292.0)">t</text><text xml:space="preserve" font-family="Cochin,Cochin" font-size="56.0" fill="#515151" transform="matrix(1.00, 0.00, -0.00, -1.00, 521.1, 292.0)"> </text><text xml:space="preserve" font-family="Cochin,Cochin" font-size="56.0" fill="#515151" transform="matrix(1.00, 0.00, -0.00, -1.00, 535.1, 292.0)">:</text><text xml:space="preserve" font-family="Cochin,Cochin" font-size="56.0" fill="#515151" transform="matrix(1.00, 0.00, -0.00, -1.00, 549.1, 292.0)">(</text></g></g></g><g opacity="0.90"><g><clipPath id="clip0x6100008b7700"><path d="M 947.0 14.0 L 971.0 14.0 L 971.0 55.0 L 947.0 55.0 Z M 947.0 14.0 "></path></clipPath><g clip-path="url(#clip0x6100008b7700)"><text xml:space="preserve" font-family="Cochin,Cochin" font-size="28.0" fill="#515050" transform="matrix(1.00, 0.00, -0.00, -1.00, 952.0, 26.0)">7</text></g></g></g></g></svg>